<?xml version="1.0" encoding="UTF-8"?>
<!DOCTYPE svg PUBLIC "-//W3C//DTD SVG 1.1//EN" "http://www.w3.org/Graphics/SVG/1.1/DTD/svg11.dtd">
<svg version="1.2" width="125mm" height="25mm" viewBox="0 0 12500 2500" preserveAspectRatio="xMidYMid" fill-rule="evenodd" stroke-width="28.222" stroke-linejoin="round" xmlns="http://www.w3.org/2000/svg" xmlns:ooo="http://xml.openoffice.org/svg/export" xmlns:xlink="http://www.w3.org/1999/xlink" xmlns:presentation="http://sun.com/xmlns/staroffice/presentation" xmlns:smil="http://www.w3.org/2001/SMIL20/" xmlns:anim="urn:oasis:names:tc:opendocument:xmlns:animation:1.0" xmlns:svg="urn:oasis:names:tc:opendocument:xmlns:svg-compatible:1.0" xml:space="preserve">
 <defs class="ClipPathGroup">
  <clipPath id="presentation_clip_path" clipPathUnits="userSpaceOnUse">
   <rect x="0" y="0" width="12500" height="2500"/>
  </clipPath>
  <clipPath id="presentation_clip_path_shrink" clipPathUnits="userSpaceOnUse">
   <rect x="12" y="2" width="12475" height="2495"/>
  </clipPath>
 </defs>
 <defs class="TextShapeIndex">
  <g ooo:slide="id1" ooo:id-list="id3"/>
 </defs>
 <defs class="EmbeddedBulletChars">
  <g id="bullet-char-template-57356" transform="scale(0.00048828125,-0.00048828125)">
   <path d="M 580,1141 L 1163,571 580,0 -4,571 580,1141 Z"/>
  </g>
  <g id="bullet-char-template-57354" transform="scale(0.00048828125,-0.00048828125)">
   <path d="M 8,1128 L 1137,1128 1137,0 8,0 8,1128 Z"/>
  </g>
  <g id="bullet-char-template-10146" transform="scale(0.00048828125,-0.00048828125)">
   <path d="M 174,0 L 602,739 174,1481 1456,739 174,0 Z M 1358,739 L 309,1346 659,739 1358,739 Z"/>
  </g>
  <g id="bullet-char-template-10132" transform="scale(0.00048828125,-0.00048828125)">
   <path d="M 2015,739 L 1276,0 717,0 1260,543 174,543 174,936 1260,936 717,1481 1274,1481 2015,739 Z"/>
  </g>
  <g id="bullet-char-template-10007" transform="scale(0.00048828125,-0.00048828125)">
   <path d="M 0,-2 C -7,14 -16,27 -25,37 L 356,567 C 262,823 215,952 215,954 215,979 228,992 255,992 264,992 276,990 289,987 310,991 331,999 354,1012 L 381,999 492,748 772,1049 836,1024 860,1049 C 881,1039 901,1025 922,1006 886,937 835,863 770,784 769,783 710,716 594,584 L 774,223 C 774,196 753,168 711,139 L 727,119 C 717,90 699,76 672,76 641,76 570,178 457,381 L 164,-76 C 142,-110 111,-127 72,-127 30,-127 9,-110 8,-76 1,-67 -2,-52 -2,-32 -2,-23 -1,-13 0,-2 Z"/>
  </g>
  <g id="bullet-char-template-10004" transform="scale(0.00048828125,-0.00048828125)">
   <path d="M 285,-33 C 182,-33 111,30 74,156 52,228 41,333 41,471 41,549 55,616 82,672 116,743 169,778 240,778 293,778 328,747 346,684 L 369,508 C 377,444 397,411 428,410 L 1163,1116 C 1174,1127 1196,1133 1229,1133 1271,1133 1292,1118 1292,1087 L 1292,965 C 1292,929 1282,901 1262,881 L 442,47 C 390,-6 338,-33 285,-33 Z"/>
  </g>
  <g id="bullet-char-template-9679" transform="scale(0.00048828125,-0.00048828125)">
   <path d="M 813,0 C 632,0 489,54 383,161 276,268 223,411 223,592 223,773 276,916 383,1023 489,1130 632,1184 813,1184 992,1184 1136,1130 1245,1023 1353,916 1407,772 1407,592 1407,412 1353,268 1245,161 1136,54 992,0 813,0 Z"/>
  </g>
  <g id="bullet-char-template-8226" transform="scale(0.00048828125,-0.00048828125)">
   <path d="M 346,457 C 273,457 209,483 155,535 101,586 74,649 74,723 74,796 101,859 155,911 209,963 273,989 346,989 419,989 480,963 531,910 582,859 608,796 608,723 608,648 583,586 532,535 482,483 420,457 346,457 Z"/>
  </g>
  <g id="bullet-char-template-8211" transform="scale(0.00048828125,-0.00048828125)">
   <path d="M -4,459 L 1135,459 1135,606 -4,606 -4,459 Z"/>
  </g>
  <g id="bullet-char-template-61548" transform="scale(0.00048828125,-0.00048828125)">
   <path d="M 173,740 C 173,903 231,1043 346,1159 462,1274 601,1332 765,1332 928,1332 1067,1274 1183,1159 1299,1043 1357,903 1357,740 1357,577 1299,437 1183,322 1067,206 928,148 765,148 601,148 462,206 346,322 231,437 173,577 173,740 Z"/>
  </g>
 </defs>
 <g>
  <g id="id2" class="Master_Slide">
   <g id="bg-id2" class="Background"/>
   <g id="bo-id2" class="BackgroundObjects"/>
  </g>
 </g>
 <g class="SlideGroup">
  <g>
   <g id="container-id1">
    <g id="id1" class="Slide" clip-path="url(#presentation_clip_path)">
     <g class="Page">
      <g class="Graphic">
       <g id="id3">
        <rect class="BoundingBox" stroke="none"  x="-3104" y="-9958" width="21026" height="29726"/>
        <path  stroke="rgb(175,47,2)" stroke-width="28" stroke-linejoin="round" d="M 1182,725 L 1182,806 996,806 996,1778 908,1778 908,1512 942,1587 C 899,1527 857,1472 814,1422 772,1371 727,1331 680,1300 632,1269 580,1253 524,1253 473,1253 433,1266 403,1291 373,1317 358,1354 358,1402 358,1450 373,1488 404,1516 434,1545 480,1571 541,1595 L 510,1680 C 457,1659 412,1636 376,1609 339,1582 312,1551 294,1516 276,1481 267,1442 267,1400 267,1352 278,1310 300,1276 322,1242 351,1215 389,1197 427,1179 468,1170 512,1170 580,1170 640,1185 691,1213 743,1242 790,1279 831,1323 872,1368 911,1416 947,1466 L 913,1460 C 912,1435 911,1410 910,1386 909,1362 908,1338 908,1314 L 908,806 131,806 131,725 1182,725 Z "/>
        <path  stroke="rgb(175,47,2)" stroke-width="28" stroke-linejoin="round" d="M 614,1211 L 614,1226 C 614,1231 613,1236 612,1241 L 527,1209 C 525,1144 515,1088 498,1043 482,998 451,961 407,933 363,905 299,885 214,874 L 228,793 268,805 C 334,812 389,827 433,849 478,871 513,900 540,935 566,970 585,1011 597,1057 608,1103 614,1154 614,1211 Z "/>
        <path  stroke="rgb(175,47,2)" stroke-width="28" stroke-linejoin="round" d="M 2378,725 L 2378,806 2192,806 2192,1407 2105,1407 2105,1125 2119,1175 C 2092,1136 2063,1104 2033,1081 2003,1058 1970,1047 1933,1047 1913,1047 1894,1051 1874,1058 1854,1066 1838,1080 1826,1100 1814,1120 1807,1148 1807,1184 1807,1195 1808,1206 1808,1218 1809,1229 1810,1239 1811,1248 L 1735,1253 C 1728,1181 1702,1123 1658,1080 1613,1038 1560,1016 1499,1016 1446,1016 1407,1029 1381,1054 1355,1080 1342,1113 1342,1153 1342,1203 1358,1242 1390,1272 1422,1301 1468,1327 1528,1350 L 1496,1433 C 1453,1418 1413,1398 1375,1374 1337,1350 1307,1319 1284,1283 1262,1246 1250,1201 1250,1148 1250,1106 1260,1069 1280,1037 1300,1005 1328,980 1365,961 1401,943 1444,933 1492,933 1562,933 1619,949 1663,980 1707,1011 1743,1052 1770,1104 L 1751,1106 C 1759,1060 1780,1024 1813,1000 1847,976 1882,964 1921,964 1966,964 2004,974 2036,994 2068,1014 2099,1041 2129,1074 L 2109,1082 C 2108,1061 2107,1038 2106,1013 2106,988 2105,963 2105,938 L 2105,806 1149,806 1149,725 2378,725 Z "/>
        <path  stroke="rgb(175,47,2)" stroke-width="28" stroke-linejoin="round" d="M 1636,1448 C 1685,1448 1728,1460 1766,1484 1804,1509 1832,1540 1850,1578 1859,1547 1874,1522 1896,1505 1918,1488 1947,1480 1982,1480 2016,1480 2045,1488 2071,1503 2096,1518 2122,1538 2149,1563 L 2107,1548 C 2106,1539 2105,1528 2105,1516 L 2105,1473 2105,1367 2192,1362 2192,1851 2105,1851 2105,1566 2144,1658 C 2119,1627 2095,1603 2071,1585 2046,1567 2020,1558 1992,1558 1963,1558 1939,1567 1922,1585 1904,1603 1895,1631 1895,1670 1895,1678 1896,1686 1896,1696 1897,1705 1898,1714 1899,1722 L 1826,1726 C 1818,1663 1797,1615 1763,1579 1729,1544 1689,1526 1641,1526 1603,1526 1573,1536 1552,1557 1530,1578 1520,1605 1520,1637 1520,1676 1533,1708 1558,1734 1584,1760 1625,1784 1680,1805 L 1647,1883 C 1586,1859 1534,1828 1493,1788 1452,1749 1431,1697 1431,1634 1431,1580 1451,1535 1489,1500 1527,1465 1577,1448 1636,1448 Z "/>
        <path  stroke="rgb(175,47,2)" stroke-width="28" stroke-linejoin="round" d="M 2805,725 L 2805,806 2618,806 2618,1778 2532,1778 2532,947 C 2511,903 2487,868 2463,843 2438,819 2404,806 2363,806 L 2346,806 2346,725 2373,725 C 2402,725 2431,733 2460,750 2489,767 2514,797 2535,840 2534,831 2533,817 2533,797 2532,777 2532,758 2532,740 L 2532,623 2595,623 2617,725 2805,725 Z "/>
        <path  stroke="rgb(175,47,2)" stroke-width="28" stroke-linejoin="round" d="M 3968,725 L 3968,806 3782,806 3782,1778 3694,1778 3694,1094 3719,1172 C 3667,1097 3621,1036 3581,988 3541,940 3504,902 3471,874 3438,846 3405,826 3373,814 3341,802 3305,796 3267,796 3221,796 3178,806 3138,827 3097,847 3060,874 3024,907 2989,940 2955,977 2923,1016 L 2913,1014 C 2934,1001 2954,990 2975,983 2996,976 3019,972 3044,972 3106,972 3152,990 3182,1026 3213,1062 3228,1106 3228,1157 3228,1176 3226,1195 3222,1213 3218,1232 3210,1249 3198,1265 L 3181,1258 C 3195,1241 3209,1226 3222,1212 3235,1198 3249,1183 3264,1169 3278,1155 3294,1140 3311,1125 L 3557,894 3611,957 3133,1402 3067,1340 3176,1241 3125,1301 3084,1328 C 3103,1310 3119,1288 3132,1262 3144,1236 3150,1205 3150,1170 3150,1137 3141,1110 3123,1086 3105,1063 3074,1052 3030,1052 3007,1052 2987,1055 2967,1060 2948,1066 2929,1074 2910,1086 L 2825,1004 C 2867,947 2911,896 2957,853 3003,809 3052,775 3103,750 3154,726 3207,713 3262,713 3324,713 3380,726 3430,752 3479,778 3528,816 3575,867 3623,918 3673,981 3726,1057 L 3700,1048 C 3698,1020 3696,991 3695,960 3694,930 3694,896 3694,859 L 3694,623 3756,623 3780,725 3968,725 Z "/>
        <path  stroke="rgb(175,47,2)" stroke-width="28" stroke-linejoin="round" d="M 3504,2222 C 3472,2222 3439,2215 3406,2203 3373,2191 3346,2171 3324,2144 3302,2117 3291,2082 3291,2039 3291,1987 3311,1944 3352,1910 3393,1876 3450,1859 3525,1859 3590,1859 3654,1872 3715,1897 3777,1921 3840,1957 3906,2003 3972,2049 4044,2105 4121,2171 L 4068,2232 C 3991,2165 3922,2110 3861,2066 3801,2022 3743,1989 3689,1967 3635,1945 3579,1934 3521,1934 3467,1934 3429,1944 3407,1966 3385,1987 3374,2012 3374,2040 3374,2079 3386,2106 3411,2123 3436,2139 3467,2147 3504,2147 3553,2147 3591,2137 3619,2117 3648,2096 3669,2071 3684,2041 3698,2011 3708,1981 3712,1950 3717,1919 3719,1893 3719,1873 L 3719,1764 3806,1764 3806,1859 C 3806,1889 3802,1924 3795,1964 3787,2005 3773,2045 3753,2084 3733,2124 3703,2157 3663,2183 3624,2209 3571,2222 3504,2222 Z "/>
        <path  stroke="rgb(175,47,2)" stroke-width="28" stroke-linejoin="round" d="M 4942,725 L 4942,806 4755,806 4755,1778 4669,1778 C 4633,1699 4585,1628 4524,1565 4464,1501 4395,1448 4316,1406 4238,1363 4153,1333 4061,1316 L 4017,1207 C 4126,1139 4236,1076 4348,1020 4461,965 4579,916 4705,874 L 4669,925 4669,806 3934,806 3934,725 4942,725 Z "/>
        <path  stroke="rgb(175,47,2)" stroke-width="28" stroke-linejoin="round" d="M 4669,937 L 4706,962 C 4608,996 4508,1037 4406,1086 4304,1136 4209,1188 4121,1245 4191,1262 4263,1289 4338,1327 4413,1365 4482,1413 4545,1473 4609,1533 4657,1604 4691,1687 L 4679,1685 C 4676,1658 4673,1627 4672,1592 4670,1557 4669,1518 4669,1477 L 4669,937 Z "/>
        <path  stroke="rgb(175,47,2)" stroke-width="28" stroke-linejoin="round" d="M 4264,1790 C 4243,1789 4224,1781 4209,1767 4194,1753 4186,1733 4186,1709 4186,1684 4194,1663 4209,1648 4224,1632 4242,1624 4262,1626 4285,1626 4303,1633 4317,1648 4331,1664 4338,1683 4338,1707 4338,1733 4331,1753 4317,1768 4303,1782 4285,1790 4264,1790 Z "/>
        <path  stroke="rgb(175,47,2)" stroke-width="28" stroke-linejoin="round" d="M 6357,725 L 6357,806 6171,806 6171,1778 6085,1778 C 6049,1699 6000,1628 5940,1565 5880,1501 5810,1448 5732,1406 5653,1363 5568,1333 5477,1316 L 5433,1207 C 5541,1139 5652,1076 5764,1020 5876,965 5995,916 6120,874 L 6085,925 6085,806 5350,806 5350,725 6357,725 Z "/>
        <path  stroke="rgb(175,47,2)" stroke-width="28" stroke-linejoin="round" d="M 6085,937 L 6122,962 C 6024,996 5924,1037 5821,1086 5719,1136 5624,1188 5536,1245 5606,1262 5679,1289 5754,1327 5829,1365 5898,1413 5961,1473 6024,1533 6073,1604 6107,1687 L 6095,1685 C 6091,1658 6089,1627 6087,1592 6086,1557 6085,1518 6085,1477 L 6085,937 Z "/>
        <path  stroke="rgb(175,47,2)" stroke-width="28" stroke-linejoin="round" d="M 6711,1604 C 6674,1604 6639,1592 6606,1569 6574,1546 6541,1507 6508,1451 L 6576,1411 C 6601,1452 6623,1481 6644,1495 6664,1510 6685,1517 6706,1517 6731,1517 6753,1510 6773,1496 6793,1482 6819,1454 6850,1412 6868,1387 6881,1363 6887,1339 6894,1314 6898,1288 6898,1260 6898,1209 6888,1165 6870,1127 6852,1089 6827,1060 6794,1038 6762,1017 6722,1006 6676,1006 6636,1006 6604,1015 6579,1033 6554,1051 6542,1078 6542,1114 6542,1130 6544,1145 6548,1160 6552,1175 6557,1190 6564,1206 L 6483,1226 C 6473,1205 6465,1183 6461,1163 6456,1142 6454,1122 6454,1104 6454,1065 6464,1032 6484,1005 6505,979 6532,959 6566,946 6600,933 6636,926 6674,926 6738,926 6793,941 6837,969 6882,997 6916,1037 6940,1088 6964,1139 6975,1199 6975,1267 6975,1279 6975,1293 6974,1309 6973,1325 6971,1341 6969,1356 L 6925,1323 C 6955,1274 6991,1230 7033,1191 7075,1152 7123,1119 7178,1091 7232,1062 7294,1040 7361,1025 L 7425,1089 C 7396,1143 7374,1200 7360,1259 7345,1318 7338,1375 7338,1429 7338,1485 7343,1539 7355,1593 7366,1648 7381,1706 7400,1768 L 7316,1786 C 7296,1723 7281,1661 7269,1601 7257,1541 7251,1479 7251,1416 7251,1362 7258,1307 7271,1252 7284,1198 7303,1145 7329,1094 L 7358,1106 C 7309,1119 7262,1137 7217,1159 7171,1181 7126,1213 7080,1254 7035,1295 6988,1351 6940,1422 6910,1468 6884,1503 6860,1530 6837,1557 6813,1575 6790,1587 6767,1598 6741,1604 6711,1604 Z "/>
        <path  stroke="rgb(175,47,2)" stroke-width="28" stroke-linejoin="round" d="M 6461,750 L 6517,761 C 6576,782 6621,808 6649,838 6678,869 6695,907 6701,952 L 6613,957 C 6606,920 6588,887 6559,860 6530,832 6489,812 6437,801 L 6461,750 Z "/>
        <path  stroke="rgb(175,47,2)" stroke-width="28" stroke-linejoin="round" d="M 7146,1008 C 7074,1008 7012,987 6961,945 6910,903 6870,846 6842,774 L 6931,757 C 6948,805 6969,841 6992,866 7016,892 7041,909 7069,919 7096,928 7121,933 7145,933 7191,933 7226,923 7250,902 7273,881 7285,855 7285,823 7285,806 7282,791 7275,778 7268,765 7261,756 7253,750 L 7350,740 C 7355,750 7360,762 7364,777 7368,791 7370,806 7370,823 7370,862 7361,895 7342,922 7323,950 7297,971 7263,986 7229,1000 7190,1008 7146,1008 Z "/>
        <path  stroke="rgb(175,47,2)" stroke-width="28" stroke-linejoin="round" d="M 7552,725 L 7552,806 7333,806 7314,806 6918,806 6901,806 6325,806 6325,725 7552,725 7552,725 Z "/>
        <path  stroke="rgb(175,47,2)" stroke-width="28" stroke-linejoin="round" d="M 7978,806 L 7792,806 7792,1778 7706,1778 7706,806 7519,806 7519,725 7706,725 C 7702,646 7684,580 7652,526 7620,472 7577,430 7522,397 7467,365 7405,342 7334,327 7263,312 7186,305 7102,305 7028,305 6965,310 6914,319 6863,329 6825,343 6799,360 6773,378 6760,399 6760,424 6760,450 6773,467 6798,475 6824,484 6857,488 6897,488 L 7085,488 C 7143,488 7189,493 7223,503 7258,513 7286,530 7307,554 7327,573 7342,598 7351,628 7360,659 7365,695 7365,737 L 7287,737 C 7286,707 7282,682 7276,660 7271,638 7261,621 7246,608 7234,595 7217,585 7195,579 7174,572 7142,569 7099,569 L 6911,569 C 6869,569 6832,566 6800,560 6768,554 6742,543 6723,529 6705,516 6692,501 6684,483 6676,465 6672,446 6672,425 6672,367 6707,319 6775,281 6844,244 6951,226 7097,226 7318,226 7487,267 7606,350 7724,433 7787,558 7794,725 L 7978,725 7978,806 Z "/>
        <path  stroke="rgb(175,47,2)" stroke-width="28" stroke-linejoin="round" d="M 9010,725 L 9010,806 8823,806 8823,1778 8737,1778 C 8690,1709 8636,1648 8577,1594 8518,1541 8449,1494 8371,1455 8292,1417 8198,1387 8089,1367 L 8046,1263 C 8084,1237 8125,1212 8169,1187 8214,1162 8259,1138 8306,1115 8353,1092 8398,1071 8441,1052 8387,1013 8328,979 8265,948 8202,918 8128,891 8043,867 L 8077,789 8080,806 7945,806 7945,725 9010,725 Z "/>
        <path  stroke="rgb(175,47,2)" stroke-width="28" stroke-linejoin="round" d="M 8737,806 L 8126,806 8107,798 C 8162,812 8215,832 8266,858 8318,883 8367,910 8412,939 8457,968 8496,996 8529,1025 L 8536,1097 C 8488,1118 8439,1140 8389,1164 8339,1189 8291,1213 8245,1238 8200,1263 8160,1286 8128,1309 L 8121,1289 C 8228,1308 8321,1338 8400,1378 8479,1418 8548,1464 8606,1516 8664,1569 8715,1625 8757,1683 L 8744,1690 C 8742,1664 8740,1635 8739,1602 8738,1569 8737,1540 8737,1514 L 8737,806 Z "/>
        <path  stroke="rgb(175,47,2)" stroke-width="28" stroke-linejoin="round" d="M 8264,1790 C 8243,1789 8225,1781 8209,1767 8194,1753 8187,1733 8187,1709 8187,1684 8194,1663 8209,1648 8225,1632 8242,1624 8263,1626 8285,1626 8304,1633 8318,1648 8332,1664 8339,1683 8339,1707 8339,1733 8332,1753 8318,1768 8304,1782 8286,1790 8264,1790 Z "/>
        <path  stroke="rgb(175,47,2)" stroke-width="28" stroke-linejoin="round" d="M 10578,725 L 10578,806 10391,806 10391,1778 10305,1778 10305,1175 10342,1263 C 10310,1210 10278,1168 10248,1137 10219,1106 10189,1091 10161,1091 10142,1091 10125,1096 10110,1106 10096,1116 10079,1136 10061,1164 10043,1193 10020,1235 9990,1289 9959,1346 9931,1393 9906,1428 9882,1464 9857,1490 9831,1506 9805,1523 9774,1531 9738,1531 9711,1531 9684,1525 9658,1514 9632,1503 9606,1483 9581,1454 9555,1425 9527,1385 9498,1333 L 9567,1290 C 9601,1352 9629,1394 9652,1414 9676,1434 9702,1444 9731,1444 9755,1444 9776,1438 9795,1425 9813,1412 9833,1390 9854,1359 9875,1328 9899,1286 9928,1233 L 9951,1199 C 9984,1129 10015,1079 10044,1050 10072,1021 10105,1006 10143,1006 10180,1006 10213,1018 10243,1042 10273,1065 10307,1102 10344,1153 L 10312,1152 C 10309,1126 10307,1101 10306,1077 10305,1053 10305,1031 10305,1011 L 10305,806 9418,806 9418,725 10578,725 Z "/>
        <path  stroke="rgb(175,47,2)" stroke-width="28" stroke-linejoin="round" d="M 9901,1312 C 9894,1230 9885,1164 9873,1114 9862,1063 9842,1023 9812,992 9783,961 9743,937 9693,920 9643,903 9578,887 9499,874 L 9516,789 9562,806 C 9636,820 9698,836 9747,855 9796,875 9836,899 9866,930 9896,960 9918,999 9932,1047 9946,1094 9955,1153 9958,1223 L 9901,1312 Z "/>
        <path  stroke="rgb(175,47,2)" stroke-width="28" stroke-linejoin="round" d="M 10739,1250 C 10809,1292 10876,1341 10940,1400 11004,1458 11064,1522 11119,1591 11174,1660 11222,1731 11264,1803 L 11191,1841 C 11140,1764 11090,1695 11042,1635 10993,1575 10941,1519 10884,1469 10828,1419 10761,1370 10683,1323 L 10739,1250 Z "/>
        <path  stroke="rgb(175,47,2)" stroke-width="28" stroke-linejoin="round" d="M 10698,947 C 10698,903 10708,864 10728,831 10747,797 10774,772 10808,753 10842,734 10881,725 10925,725 10968,725 11006,734 11041,753 11075,772 11103,797 11123,830 11143,863 11153,901 11153,945 11153,990 11144,1030 11124,1064 11104,1097 11077,1123 11043,1141 11008,1159 10969,1169 10925,1169 10881,1169 10842,1159 10807,1141 10773,1123 10746,1098 10727,1064 10708,1031 10698,992 10698,947 Z "/>
        <path  stroke="rgb(175,47,2)" stroke-width="28" stroke-linejoin="round" d="M 10778,947 C 10778,993 10791,1029 10819,1054 10847,1080 10882,1092 10925,1092 10969,1092 11004,1079 11032,1053 11059,1027 11072,992 11072,947 11072,902 11059,866 11032,840 11004,814 10969,801 10925,801 10881,801 10845,814 10818,841 10791,867 10778,903 10778,947 Z "/>
        <path  stroke="rgb(175,47,2)" stroke-width="28" stroke-linejoin="round" d="M 12346,725 L 12346,806 12159,806 12159,1778 12073,1778 C 12032,1719 11983,1665 11926,1616 11868,1567 11802,1526 11727,1493 11652,1459 11567,1438 11474,1428 L 11435,1326 C 11462,1305 11491,1282 11521,1259 11552,1236 11583,1214 11616,1192 11649,1171 11681,1152 11714,1135 L 11755,1145 C 11739,1152 11723,1157 11708,1161 11693,1165 11677,1167 11660,1167 11600,1167 11550,1158 11510,1141 11470,1124 11440,1101 11421,1069 11402,1038 11392,1003 11392,962 11392,917 11406,876 11434,839 11462,803 11504,767 11562,732 L 11643,771 C 11582,799 11540,829 11517,862 11494,895 11482,928 11482,960 11482,1007 11498,1040 11529,1062 11560,1083 11601,1094 11651,1094 11682,1094 11713,1089 11745,1080 11776,1070 11811,1052 11848,1026 L 11899,1094 C 11856,1121 11811,1151 11764,1183 11717,1215 11672,1247 11628,1279 11584,1312 11545,1341 11513,1367 L 11497,1345 C 11638,1366 11755,1406 11847,1463 11939,1521 12015,1591 12076,1673 12075,1654 12074,1633 12074,1611 12073,1589 12073,1567 12073,1544 L 12073,806 11274,806 11274,725 12346,725 Z "/>
       </g>
      </g>
     </g>
    </g>
   </g>
  </g>
 </g>
</svg>