<?xml version="1.0" encoding="UTF-8"?>
<!DOCTYPE svg PUBLIC "-//W3C//DTD SVG 1.1//EN" "http://www.w3.org/Graphics/SVG/1.1/DTD/svg11.dtd">
<svg version="1.2" width="210mm" height="297mm" viewBox="0 0 21000 29700" preserveAspectRatio="xMidYMid" fill-rule="evenodd" stroke-width="28.222" stroke-linejoin="round" xmlns="http://www.w3.org/2000/svg" xmlns:ooo="http://xml.openoffice.org/svg/export" xmlns:xlink="http://www.w3.org/1999/xlink" xmlns:presentation="http://sun.com/xmlns/staroffice/presentation" xmlns:smil="http://www.w3.org/2001/SMIL20/" xmlns:anim="urn:oasis:names:tc:opendocument:xmlns:animation:1.0" xmlns:svg="urn:oasis:names:tc:opendocument:xmlns:svg-compatible:1.0" xml:space="preserve">
 <defs class="ClipPathGroup">
  <clipPath id="presentation_clip_path" clipPathUnits="userSpaceOnUse">
   <rect x="0" y="0" width="21000" height="29700"/>
  </clipPath>
  <clipPath id="presentation_clip_path_shrink" clipPathUnits="userSpaceOnUse">
   <rect x="21" y="29" width="20958" height="29641"/>
  </clipPath>
 </defs>
 <defs class="TextShapeIndex">
  <g ooo:slide="id1" ooo:id-list="id3 id4 id5 id6 id7 id8 id9 id10 id11 id12 id13 id14 id15 id16"/>
 </defs>
 <defs class="EmbeddedBulletChars">
  <g id="bullet-char-template-57356" transform="scale(0.00048828125,-0.00048828125)">
   <path d="M 580,1141 L 1163,571 580,0 -4,571 580,1141 Z"/>
  </g>
  <g id="bullet-char-template-57354" transform="scale(0.00048828125,-0.00048828125)">
   <path d="M 8,1128 L 1137,1128 1137,0 8,0 8,1128 Z"/>
  </g>
  <g id="bullet-char-template-10146" transform="scale(0.00048828125,-0.00048828125)">
   <path d="M 174,0 L 602,739 174,1481 1456,739 174,0 Z M 1358,739 L 309,1346 659,739 1358,739 Z"/>
  </g>
  <g id="bullet-char-template-10132" transform="scale(0.00048828125,-0.00048828125)">
   <path d="M 2015,739 L 1276,0 717,0 1260,543 174,543 174,936 1260,936 717,1481 1274,1481 2015,739 Z"/>
  </g>
  <g id="bullet-char-template-10007" transform="scale(0.00048828125,-0.00048828125)">
   <path d="M 0,-2 C -7,14 -16,27 -25,37 L 356,567 C 262,823 215,952 215,954 215,979 228,992 255,992 264,992 276,990 289,987 310,991 331,999 354,1012 L 381,999 492,748 772,1049 836,1024 860,1049 C 881,1039 901,1025 922,1006 886,937 835,863 770,784 769,783 710,716 594,584 L 774,223 C 774,196 753,168 711,139 L 727,119 C 717,90 699,76 672,76 641,76 570,178 457,381 L 164,-76 C 142,-110 111,-127 72,-127 30,-127 9,-110 8,-76 1,-67 -2,-52 -2,-32 -2,-23 -1,-13 0,-2 Z"/>
  </g>
  <g id="bullet-char-template-10004" transform="scale(0.00048828125,-0.00048828125)">
   <path d="M 285,-33 C 182,-33 111,30 74,156 52,228 41,333 41,471 41,549 55,616 82,672 116,743 169,778 240,778 293,778 328,747 346,684 L 369,508 C 377,444 397,411 428,410 L 1163,1116 C 1174,1127 1196,1133 1229,1133 1271,1133 1292,1118 1292,1087 L 1292,965 C 1292,929 1282,901 1262,881 L 442,47 C 390,-6 338,-33 285,-33 Z"/>
  </g>
  <g id="bullet-char-template-9679" transform="scale(0.00048828125,-0.00048828125)">
   <path d="M 813,0 C 632,0 489,54 383,161 276,268 223,411 223,592 223,773 276,916 383,1023 489,1130 632,1184 813,1184 992,1184 1136,1130 1245,1023 1353,916 1407,772 1407,592 1407,412 1353,268 1245,161 1136,54 992,0 813,0 Z"/>
  </g>
  <g id="bullet-char-template-8226" transform="scale(0.00048828125,-0.00048828125)">
   <path d="M 346,457 C 273,457 209,483 155,535 101,586 74,649 74,723 74,796 101,859 155,911 209,963 273,989 346,989 419,989 480,963 531,910 582,859 608,796 608,723 608,648 583,586 532,535 482,483 420,457 346,457 Z"/>
  </g>
  <g id="bullet-char-template-8211" transform="scale(0.00048828125,-0.00048828125)">
   <path d="M -4,459 L 1135,459 1135,606 -4,606 -4,459 Z"/>
  </g>
  <g id="bullet-char-template-61548" transform="scale(0.00048828125,-0.00048828125)">
   <path d="M 173,740 C 173,903 231,1043 346,1159 462,1274 601,1332 765,1332 928,1332 1067,1274 1183,1159 1299,1043 1357,903 1357,740 1357,577 1299,437 1183,322 1067,206 928,148 765,148 601,148 462,206 346,322 231,437 173,577 173,740 Z"/>
  </g>
 </defs>
 <g>
  <g id="id2" class="Master_Slide">
   <g id="bg-id2" class="Background"/>
   <g id="bo-id2" class="BackgroundObjects"/>
  </g>
 </g>
 <g class="SlideGroup">
  <g>
   <g id="container-id1">
    <g id="id1" class="Slide" clip-path="url(#presentation_clip_path)">
     <g class="Page">
      <g class="TextShape">
       <g id="id3">
        <rect class="BoundingBox" stroke="white" stroke-width="5" fill="none" x="557" y="10740" width="19979" height="8228"/>
       </g>
      </g>
      <g class="Group">
       <g class="com.sun.star.drawing.ClosedBezierShape">
        <g id="id4">
         <rect class="BoundingBox" stroke="white" stroke-width="5" fill="none" x="783" y="11757" width="1583" height="1450"/>
         <path fill="rgb(255,255,255)" stroke="white" stroke-width="5" d="M 2364,11758 L 2364,12044 2153,12044 2153,13206 1799,13206 1799,12915 1841,13036 C 1788,12963 1735,12900 1682,12847 1630,12795 1577,12754 1524,12726 1471,12699 1418,12685 1363,12685 1334,12685 1309,12692 1289,12707 1269,12721 1259,12743 1259,12771 1259,12803 1272,12829 1298,12849 1325,12868 1362,12886 1410,12903 L 1312,13192 C 1219,13167 1142,13133 1081,13090 1019,13046 973,12996 942,12941 911,12885 895,12823 895,12754 895,12669 916,12600 956,12548 996,12496 1048,12459 1111,12435 1174,12412 1238,12401 1305,12401 1377,12401 1443,12409 1505,12427 1567,12445 1626,12473 1682,12511 1738,12549 1793,12601 1845,12666 L 1806,12692 C 1804,12654 1803,12616 1801,12576 1800,12537 1799,12500 1799,12466 L 1799,12044 784,12044 784,11758 2364,11758 Z M 1585,12473 C 1585,12487 1584,12502 1582,12519 1581,12536 1578,12553 1575,12570 L 1231,12487 C 1229,12421 1218,12369 1196,12330 1174,12290 1138,12259 1086,12238 1035,12216 960,12201 861,12193 L 923,11942 1077,11977 C 1167,11989 1244,12008 1308,12033 1371,12058 1424,12089 1465,12128 1506,12167 1536,12215 1555,12271 1575,12328 1585,12395 1585,12473 Z "/>
        </g>
       </g>
       <g class="com.sun.star.drawing.ClosedBezierShape">
        <g id="id5">
         <rect class="BoundingBox" stroke="white" stroke-width="5" fill="none" x="2316" y="11757" width="1936" height="1660"/>
         <path fill="rgb(255,255,255)" stroke="white" stroke-width="5" d="M 4251,11758 L 4251,12044 4039,12044 4039,12689 3685,12689 3685,12419 3715,12556 C 3686,12515 3656,12480 3626,12453 3595,12426 3560,12412 3520,12412 3504,12412 3488,12416 3472,12424 3456,12432 3441,12445 3429,12465 3417,12484 3410,12511 3410,12547 3410,12561 3411,12574 3413,12587 3414,12599 3416,12611 3417,12622 L 3115,12640 C 3102,12570 3076,12514 3037,12470 2997,12427 2943,12405 2875,12405 2838,12405 2810,12414 2791,12431 2772,12448 2763,12468 2763,12491 2763,12527 2779,12556 2810,12577 2841,12599 2882,12617 2933,12631 L 2814,12913 C 2729,12886 2655,12853 2593,12813 2531,12772 2484,12723 2451,12666 2419,12608 2402,12542 2402,12466 2402,12394 2420,12332 2456,12279 2492,12227 2540,12186 2603,12156 2665,12127 2735,12112 2814,12112 2917,12112 3001,12128 3067,12161 3133,12193 3199,12243 3266,12310 L 3205,12305 C 3224,12248 3256,12203 3300,12170 3344,12137 3396,12121 3455,12121 3507,12121 3555,12132 3599,12155 3642,12177 3681,12206 3715,12240 L 3694,12261 C 3691,12230 3689,12200 3689,12170 3688,12141 3687,12113 3687,12086 L 3687,12044 2316,12044 2316,11758 4251,11758 Z M 3075,12747 C 3151,12747 3216,12760 3270,12786 3323,12811 3372,12846 3417,12889 3438,12855 3461,12831 3488,12816 3515,12801 3545,12794 3578,12794 3620,12794 3657,12805 3689,12827 3720,12848 3753,12878 3785,12915 L 3692,12896 C 3690,12864 3689,12834 3687,12808 3686,12782 3685,12750 3685,12715 L 3685,12666 4039,12645 4039,13306 3685,13306 3685,13013 3748,13171 C 3732,13143 3713,13117 3691,13093 3668,13069 3645,13057 3620,13057 3604,13057 3592,13062 3581,13073 3571,13084 3566,13100 3566,13122 3566,13132 3567,13142 3569,13152 3570,13163 3572,13172 3573,13178 L 3292,13194 C 3287,13138 3270,13095 3240,13063 3211,13031 3175,13015 3133,13015 3108,13015 3090,13020 3079,13030 3067,13040 3061,13053 3061,13069 3061,13089 3069,13106 3083,13121 3098,13136 3126,13151 3166,13166 L 3056,13416 C 2951,13381 2869,13334 2812,13272 2755,13211 2726,13137 2726,13050 2726,12960 2757,12887 2820,12831 2883,12775 2968,12747 3075,12747 Z "/>
        </g>
       </g>
       <g class="com.sun.star.drawing.ClosedBezierShape">
        <g id="id6">
         <rect class="BoundingBox" stroke="white" stroke-width="5" fill="none" x="4204" y="11599" width="779" height="1608"/>
         <path fill="rgb(255,255,255)" stroke="white" stroke-width="5" d="M 4982,11758 L 4982,12044 4770,12044 4770,13206 4416,13206 4416,12191 C 4397,12144 4372,12108 4340,12083 4309,12057 4268,12044 4218,12044 L 4204,12044 4204,11758 4251,11758 C 4283,11758 4315,11768 4346,11787 4377,11806 4404,11843 4425,11898 4422,11884 4420,11862 4418,11834 4417,11805 4416,11780 4416,11760 L 4416,11600 4712,11600 4768,11758 4982,11758 Z "/>
        </g>
       </g>
       <g class="com.sun.star.drawing.ClosedBezierShape">
        <g id="id7">
         <rect class="BoundingBox" stroke="white" stroke-width="5" fill="none" x="4990" y="11599" width="1808" height="1609"/>
         <path fill="rgb(255,255,255)" stroke="white" stroke-width="5" d="M 6797,11758 L 6797,12044 6585,12044 6585,13206 6233,13206 6233,12296 6259,12440 C 6208,12373 6158,12314 6111,12262 6064,12210 6017,12167 5970,12132 5924,12097 5877,12070 5829,12051 5782,12033 5733,12023 5682,12023 5626,12023 5576,12032 5534,12050 5491,12068 5450,12094 5412,12128 5373,12162 5330,12204 5283,12254 L 5235,12214 C 5267,12189 5303,12170 5341,12155 5379,12140 5419,12133 5460,12133 5540,12133 5598,12154 5636,12197 5674,12239 5693,12288 5693,12342 5693,12364 5692,12386 5691,12409 5689,12431 5686,12449 5682,12463 L 5586,12431 C 5600,12414 5618,12394 5641,12371 5663,12349 5687,12326 5712,12303 5737,12279 5760,12259 5782,12240 L 6059,12007 6261,12212 5563,12834 5330,12612 5530,12445 5458,12545 5374,12582 C 5404,12556 5425,12530 5439,12506 5453,12482 5460,12459 5460,12435 5460,12404 5452,12382 5435,12368 5418,12354 5394,12347 5365,12347 5343,12347 5322,12350 5301,12357 5280,12364 5257,12376 5232,12391 L 4990,12165 C 5066,12075 5139,11999 5208,11936 5277,11873 5348,11825 5422,11792 5496,11758 5578,11742 5668,11742 5745,11742 5817,11754 5882,11780 5947,11806 6011,11843 6073,11891 6135,11939 6199,11998 6266,12068 L 6245,12110 C 6242,12082 6239,12047 6237,12007 6234,11967 6233,11929 6233,11895 L 6233,11600 6529,11600 6583,11758 6797,11758 Z "/>
        </g>
       </g>
       <g class="com.sun.star.drawing.ClosedBezierShape">
        <g id="id8">
         <rect class="BoundingBox" stroke="white" stroke-width="5" fill="none" x="5667" y="13164" width="1322" height="674"/>
         <path fill="rgb(255,255,255)" stroke="white" stroke-width="5" d="M 6054,13825 C 5995,13825 5936,13816 5876,13796 5816,13777 5767,13746 5727,13703 5688,13660 5668,13603 5668,13532 5668,13443 5702,13374 5770,13322 5838,13271 5939,13246 6071,13246 6176,13246 6277,13259 6373,13286 6469,13313 6568,13355 6668,13410 6768,13465 6874,13536 6988,13623 L 6808,13837 C 6720,13755 6635,13686 6552,13631 6470,13576 6392,13535 6317,13507 6243,13480 6173,13467 6108,13467 6064,13467 6034,13474 6016,13488 5998,13502 5989,13520 5989,13541 5989,13565 5997,13582 6012,13594 6028,13605 6050,13611 6077,13611 6112,13611 6139,13603 6159,13588 6179,13572 6195,13552 6206,13526 6216,13500 6224,13473 6228,13443 6232,13414 6233,13384 6233,13353 L 6233,13164 6587,13164 6587,13264 C 6587,13319 6581,13378 6569,13442 6556,13507 6532,13568 6495,13626 6459,13684 6405,13732 6335,13769 6264,13807 6171,13825 6054,13825 Z "/>
        </g>
       </g>
       <g class="com.sun.star.drawing.ClosedBezierShape">
        <g id="id9">
         <rect class="BoundingBox" stroke="white" stroke-width="5" fill="none" x="6748" y="11757" width="1520" height="1497"/>
         <path fill="rgb(255,255,255)" stroke="white" stroke-width="5" d="M 8266,11758 L 8266,12044 8055,12044 8055,13206 7701,13206 C 7642,13127 7574,13059 7498,13001 7422,12944 7338,12896 7246,12857 7153,12818 7050,12789 6937,12768 L 6807,12452 C 6954,12374 7109,12303 7270,12239 7431,12174 7592,12122 7752,12082 L 7715,12151 7715,12044 6748,12044 6748,11758 8266,11758 Z M 7701,12345 L 7747,12382 C 7656,12407 7569,12435 7488,12467 7406,12499 7321,12536 7233,12577 7292,12588 7353,12608 7418,12638 7482,12667 7545,12704 7606,12747 7668,12791 7721,12840 7766,12896 L 7712,12908 C 7709,12874 7706,12838 7704,12801 7702,12764 7701,12728 7701,12694 L 7701,12345 Z M 7165,13253 C 7111,13254 7067,13238 7033,13204 6998,13170 6982,13127 6984,13076 6982,13024 6998,12982 7033,12949 7067,12915 7111,12899 7165,12901 7218,12899 7261,12915 7294,12949 7328,12982 7345,13024 7347,13076 7347,13127 7330,13170 7296,13204 7262,13238 7218,13254 7165,13253 Z "/>
        </g>
       </g>
       <g class="com.sun.star.drawing.ClosedBezierShape">
        <g id="id10">
         <rect class="BoundingBox" stroke="white" stroke-width="5" fill="none" x="8873" y="11757" width="1519" height="1450"/>
         <path fill="rgb(255,255,255)" stroke="white" stroke-width="5" d="M 10391,11758 L 10391,12044 10179,12044 10179,13206 9825,13206 C 9766,13127 9699,13059 9623,13001 9547,12944 9462,12896 9370,12857 9278,12818 9175,12789 9062,12768 L 8931,12452 C 9079,12374 9233,12303 9395,12239 9556,12174 9717,12122 9876,12082 L 9839,12151 9839,12044 8873,12044 8873,11758 10391,11758 Z M 9825,12345 L 9872,12382 C 9780,12407 9694,12435 9612,12467 9531,12499 9446,12536 9357,12577 9416,12588 9478,12608 9542,12638 9607,12667 9670,12704 9731,12747 9792,12791 9845,12841 9890,12896 L 9837,12908 C 9834,12874 9831,12838 9829,12801 9826,12764 9825,12728 9825,12694 L 9825,12345 Z "/>
        </g>
       </g>
       <g class="com.sun.star.drawing.ClosedBezierShape">
        <g id="id11">
         <rect class="BoundingBox" stroke="white" stroke-width="5" fill="none" x="10346" y="11757" width="1820" height="1478"/>
         <path fill="rgb(255,255,255)" stroke="white" stroke-width="5" d="M 10907,13085 C 10817,13085 10741,13061 10677,13014 10613,12967 10556,12900 10505,12815 L 10742,12671 C 10768,12712 10792,12742 10813,12760 10834,12778 10856,12787 10879,12787 10900,12787 10918,12782 10935,12772 10952,12762 10970,12747 10989,12726 11007,12708 11021,12687 11030,12664 11038,12640 11042,12613 11042,12582 11042,12550 11037,12518 11025,12489 11013,12459 10996,12435 10974,12417 10951,12398 10923,12389 10889,12389 10862,12389 10842,12396 10827,12410 10812,12424 10805,12442 10805,12463 10805,12474 10806,12485 10807,12496 10809,12507 10812,12518 10817,12529 L 10498,12577 C 10485,12550 10476,12519 10470,12485 10464,12452 10460,12423 10460,12398 10460,12328 10480,12273 10519,12232 10557,12191 10607,12161 10669,12142 10730,12123 10793,12114 10858,12114 10959,12114 11048,12133 11124,12171 11200,12209 11259,12262 11302,12331 11345,12399 11366,12478 11366,12568 11366,12590 11364,12614 11360,12639 11356,12665 11353,12688 11350,12710 L 11052,12780 C 11095,12716 11149,12654 11215,12594 11280,12533 11361,12479 11459,12432 11557,12385 11678,12350 11822,12328 L 12027,12543 C 11996,12594 11974,12647 11960,12702 11946,12757 11939,12812 11939,12866 11939,12917 11943,12968 11953,13017 11962,13067 11976,13116 11995,13164 L 11648,13234 C 11628,13172 11612,13112 11600,13055 11588,12997 11582,12936 11582,12871 11582,12806 11592,12741 11610,12676 11629,12612 11660,12547 11704,12482 L 11869,12633 C 11763,12647 11674,12667 11600,12693 11526,12718 11464,12749 11413,12785 11361,12820 11315,12860 11273,12903 11240,12939 11207,12971 11173,12999 11139,13027 11100,13048 11058,13063 11015,13078 10965,13085 10907,13085 Z M 10640,11923 L 10749,11947 C 10838,11982 10901,12022 10939,12066 10977,12111 11000,12166 11007,12233 L 10682,12240 C 10674,12189 10650,12144 10611,12107 10571,12070 10515,12043 10442,12026 L 10640,11923 Z M 11631,12328 C 11512,12328 11408,12295 11319,12228 11231,12162 11164,12075 11119,11968 L 11450,11937 C 11462,11982 11477,12017 11494,12042 11511,12067 11530,12084 11550,12092 11570,12101 11590,12105 11610,12105 11641,12105 11665,12097 11680,12082 11696,12066 11704,12044 11704,12016 11704,11990 11693,11969 11672,11954 11651,11938 11624,11929 11589,11926 L 11969,11886 C 11984,11906 11996,11929 12005,11954 12014,11978 12018,12006 12018,12035 12018,12103 12000,12159 11965,12201 11931,12244 11884,12276 11827,12297 11770,12318 11704,12328 11631,12328 Z M 12164,11758 L 12164,12044 11853,12044 11811,12028 11420,12028 11394,12044 10346,12044 10346,11758 12164,11758 Z "/>
        </g>
       </g>
       <g class="com.sun.star.drawing.ClosedBezierShape">
        <g id="id12">
         <rect class="BoundingBox" stroke="white" stroke-width="5" fill="none" x="10858" y="11071" width="2039" height="2136"/>
         <path fill="rgb(255,255,255)" stroke="white" stroke-width="5" d="M 12896,12044 L 12684,12044 12684,13206 12330,13206 12330,12044 12118,12044 12118,11758 12326,11758 C 12307,11685 12277,11621 12237,11567 12197,11513 12144,11467 12078,11431 12012,11394 11931,11368 11837,11351 11742,11334 11631,11325 11504,11325 11425,11325 11361,11328 11314,11335 11267,11342 11233,11352 11213,11363 11193,11375 11182,11387 11182,11399 11182,11413 11190,11423 11205,11427 11219,11432 11245,11434 11280,11434 L 11504,11434 C 11597,11434 11670,11441 11724,11455 11777,11469 11822,11492 11858,11523 11889,11549 11912,11583 11927,11623 11943,11663 11951,11714 11951,11774 L 11608,11774 C 11608,11754 11605,11736 11599,11720 11593,11703 11584,11691 11571,11683 11559,11674 11545,11668 11529,11664 11514,11660 11491,11658 11459,11658 L 11306,11658 C 11217,11658 11146,11653 11092,11643 11037,11633 10992,11616 10957,11593 10924,11571 10900,11544 10883,11512 10867,11481 10859,11444 10859,11404 10859,11305 10914,11224 11025,11163 11136,11102 11311,11071 11550,11071 11892,11071 12159,11127 12351,11238 12544,11349 12654,11522 12682,11758 L 12896,11758 12896,12044 Z "/>
        </g>
       </g>
       <g class="com.sun.star.drawing.ClosedBezierShape">
        <g id="id13">
         <rect class="BoundingBox" stroke="white" stroke-width="5" fill="none" x="12852" y="11757" width="1604" height="1532"/>
         <path fill="rgb(255,255,255)" stroke="white" stroke-width="5" d="M 14454,11758 L 14454,12044 14242,12044 14242,13206 13888,13206 C 13822,13136 13748,13077 13666,13028 13585,12979 13495,12939 13397,12908 13299,12877 13189,12854 13067,12838 L 12943,12540 C 12984,12515 13026,12492 13069,12469 13112,12447 13158,12423 13205,12399 13252,12375 13302,12352 13353,12331 13291,12297 13225,12268 13154,12246 13083,12223 13007,12204 12925,12189 L 13018,11974 13118,12044 12852,12044 12852,11758 14454,11758 Z M 13888,12044 L 13271,12044 13330,12030 C 13378,12046 13424,12065 13467,12086 13511,12108 13552,12132 13590,12158 13629,12185 13665,12212 13698,12240 L 13721,12473 C 13682,12487 13641,12503 13597,12522 13554,12540 13511,12559 13467,12579 13424,12598 13382,12619 13344,12640 L 13337,12619 C 13402,12629 13472,12647 13546,12674 13621,12701 13693,12736 13763,12779 13833,12821 13893,12871 13944,12927 L 13905,12948 C 13897,12910 13892,12873 13891,12836 13889,12799 13888,12755 13888,12705 L 13888,12044 Z M 13264,13288 C 13210,13289 13166,13273 13132,13239 13097,13205 13081,13162 13083,13111 13081,13059 13097,13017 13132,12984 13166,12950 13210,12934 13264,12936 13317,12934 13360,12950 13393,12984 13427,13017 13444,13059 13446,13111 13446,13162 13429,13205 13395,13239 13360,13273 13317,13289 13264,13288 Z "/>
        </g>
       </g>
       <g class="com.sun.star.drawing.ClosedBezierShape">
        <g id="id14">
         <rect class="BoundingBox" stroke="white" stroke-width="5" fill="none" x="15057" y="11757" width="1713" height="1450"/>
         <path fill="rgb(255,255,255)" stroke="white" stroke-width="5" d="M 16769,11758 L 16769,12044 16557,12044 16557,13206 16203,13206 16203,12498 16263,12596 C 16237,12563 16213,12538 16191,12520 16170,12503 16149,12494 16128,12494 16110,12494 16093,12498 16078,12508 16064,12517 16046,12536 16025,12566 16004,12595 15973,12642 15933,12705 15889,12774 15848,12829 15808,12871 15769,12913 15727,12942 15684,12959 15640,12976 15591,12985 15535,12985 15482,12985 15433,12976 15387,12958 15341,12940 15298,12911 15258,12870 15217,12828 15178,12774 15139,12705 L 15374,12559 C 15404,12604 15429,12636 15450,12657 15471,12677 15494,12687 15521,12687 15539,12687 15557,12682 15573,12673 15589,12664 15609,12643 15631,12611 15654,12579 15683,12530 15719,12463 L 15772,12417 C 15814,12344 15855,12290 15894,12256 15934,12222 15982,12205 16038,12205 16078,12205 16114,12213 16145,12229 16176,12246 16209,12271 16245,12305 L 16212,12317 C 16211,12289 16209,12261 16206,12233 16204,12205 16203,12176 16203,12147 L 16203,12044 15058,12044 15058,11758 16769,11758 Z M 15628,12654 C 15615,12560 15601,12485 15586,12430 15570,12375 15543,12332 15505,12303 15467,12273 15420,12251 15361,12236 15303,12222 15228,12210 15137,12200 L 15227,11912 15418,12002 C 15505,12018 15575,12037 15629,12059 15683,12082 15724,12111 15755,12146 15785,12181 15807,12223 15820,12272 15833,12322 15842,12383 15847,12454 L 15628,12654 Z "/>
        </g>
       </g>
       <g class="com.sun.star.drawing.ClosedBezierShape">
        <g id="id15">
         <rect class="BoundingBox" stroke="white" stroke-width="5" fill="none" x="16878" y="11757" width="894" height="1567"/>
         <path fill="rgb(255,255,255)" stroke="white" stroke-width="5" d="M 17088,12463 C 17181,12518 17269,12582 17352,12657 17435,12731 17512,12812 17582,12899 17651,12986 17714,13077 17770,13173 L 17512,13322 C 17456,13245 17396,13170 17334,13099 17271,13028 17202,12960 17128,12895 17053,12831 16970,12771 16879,12717 L 17088,12463 Z M 16888,12103 C 16888,12036 16905,11976 16939,11923 16973,11871 17018,11830 17074,11801 17130,11772 17193,11758 17263,11758 17334,11758 17398,11773 17455,11802 17511,11832 17556,11872 17590,11923 17623,11974 17640,12034 17640,12103 17640,12174 17623,12236 17590,12289 17556,12342 17511,12382 17454,12411 17396,12440 17332,12454 17263,12454 17193,12456 17130,12442 17073,12413 17016,12385 16971,12343 16938,12290 16904,12236 16888,12174 16888,12103 Z M 17151,12105 C 17151,12139 17161,12167 17182,12189 17203,12210 17230,12221 17263,12221 17295,12220 17322,12208 17344,12187 17366,12167 17377,12139 17377,12105 17377,12074 17366,12048 17345,12027 17324,12006 17297,11995 17263,11995 17232,11995 17205,12006 17183,12027 17162,12048 17151,12074 17151,12105 Z "/>
        </g>
       </g>
       <g class="com.sun.star.drawing.ClosedBezierShape">
        <g id="id16">
         <rect class="BoundingBox" stroke="white" stroke-width="5" fill="none" x="17758" y="11757" width="1618" height="1450"/>
         <path fill="rgb(255,255,255)" stroke="white" stroke-width="5" d="M 19374,11758 L 19374,12044 19164,12044 19164,13206 18811,13206 C 18752,13144 18684,13089 18607,13042 18530,12995 18443,12955 18345,12922 18247,12889 18136,12865 18012,12850 L 17907,12617 C 17935,12597 17964,12577 17995,12559 18025,12540 18056,12522 18087,12504 18118,12486 18149,12469 18182,12452 L 18303,12496 C 18289,12498 18276,12499 18265,12499 18253,12500 18243,12501 18233,12501 18153,12501 18085,12488 18031,12463 17976,12439 17936,12405 17910,12363 17883,12321 17870,12275 17870,12224 17870,12151 17891,12089 17933,12040 17975,11990 18040,11940 18129,11888 L 18443,11981 C 18370,12016 18316,12051 18282,12086 18248,12122 18231,12160 18231,12200 18231,12239 18243,12267 18266,12283 18289,12299 18317,12307 18350,12307 18381,12307 18413,12302 18445,12291 18478,12280 18515,12262 18557,12238 L 18701,12470 C 18652,12492 18604,12515 18558,12538 18512,12561 18468,12584 18424,12608 18381,12631 18340,12656 18301,12682 L 18289,12633 C 18387,12653 18480,12682 18567,12719 18655,12757 18738,12808 18815,12873 18814,12851 18813,12827 18812,12800 18811,12773 18811,12742 18811,12708 L 18811,12044 17758,12044 17758,11758 19374,11758 Z "/>
        </g>
       </g>
      </g>
     </g>
    </g>
   </g>
  </g>
 </g>
</svg>