<?xml version="1.0" standalone="no"?>
<!DOCTYPE svg PUBLIC "-//W3C//DTD SVG 20010904//EN"
 "http://www.w3.org/TR/2001/REC-SVG-20010904/DTD/svg10.dtd">
<svg version="1.0" xmlns="http://www.w3.org/2000/svg"
 width="957.000000pt" height="1110.000000pt" viewBox="0 0 957.000000 1110.000000"
 preserveAspectRatio="xMidYMid meet">
<metadata>
Created by potrace 1.10, written by Peter Selinger 2001-2011
</metadata>
<g transform="translate(0.000000,1110.000000) scale(0.100000,-0.100000)"
fill="#000000" stroke="none">
<path d="M4692 8192 c-85 -45 -196 -138 -325 -272 -116 -121 -260 -284 -323
-365 -51 -67 -159 -244 -215 -354 -64 -126 -100 -171 -139 -171 -15 0 -81 13
-146 30 -66 16 -135 30 -154 30 -19 0 -60 7 -90 15 -64 17 -130 19 -181 5 -47
-13 -126 -91 -139 -138 -5 -21 -10 -145 -10 -278 0 -223 -1 -244 -19 -265 -19
-24 -19 -24 -308 -29 -278 -5 -289 -6 -325 -28 -53 -33 -106 -96 -113 -135
-12 -65 13 -543 34 -627 11 -47 27 -141 42 -250 15 -113 67 -296 132 -470 40
-105 141 -310 188 -380 146 -219 400 -484 567 -593 56 -37 103 -67 106 -67 3
0 56 -27 118 -61 62 -34 160 -76 218 -95 136 -44 378 -94 455 -94 33 0 85 -7
115 -15 64 -17 364 -21 420 -5 45 13 128 95 140 140 13 47 13 122 -1 157 -13
31 -33 132 -49 238 -6 39 -15 99 -21 135 -13 80 -6 744 9 845 14 94 61 255 85
293 26 39 75 -87 104 -263 24 -148 31 -881 8 -937 -8 -21 -15 -55 -15 -76 0
-20 -6 -66 -14 -102 -8 -36 -23 -99 -32 -141 -25 -113 -15 -158 48 -225 32
-34 64 -58 87 -64 58 -16 386 -12 451 5 30 8 82 15 115 15 66 0 316 49 410 80
58 19 121 50 255 122 36 20 91 49 122 66 112 61 185 119 324 257 274 271 433
531 549 895 55 171 85 280 85 306 0 15 7 50 14 78 24 83 46 249 46 344 0 54 6
106 15 132 18 51 21 332 4 377 -13 34 -62 87 -109 116 -33 21 -49 22 -323 27
-289 5 -289 5 -308 29 -18 21 -19 42 -19 265 0 132 -5 257 -10 276 -12 45 -95
127 -140 140 -45 13 -116 13 -160 0 -19 -6 -66 -15 -105 -20 -87 -11 -174 -28
-243 -48 -52 -15 -53 -14 -78 9 -14 13 -37 44 -52 69 -24 43 -164 256 -255
387 -128 187 -482 563 -608 646 -113 75 -156 82 -237 39z m143 -98 c16 -19 36
-34 46 -34 22 0 389 -366 389 -387 0 -9 34 -49 75 -90 41 -40 75 -81 75 -91 0
-10 13 -29 30 -42 16 -14 29 -34 30 -45 0 -12 13 -32 30 -45 16 -14 29 -34 30
-44 0 -11 20 -39 45 -63 25 -23 45 -52 45 -63 0 -11 7 -23 15 -26 8 -4 15 -17
15 -30 0 -14 7 -27 15 -30 8 -4 15 -16 15 -28 0 -12 13 -33 30 -46 16 -14 29
-35 30 -48 0 -12 7 -25 15 -28 9 -4 15 -19 15 -35 0 -29 1 -29 58 -29 52 0 59
3 77 30 19 28 24 30 88 30 51 0 69 4 73 15 5 12 25 15 90 15 60 0 85 4 91 14
6 10 37 15 112 17 l103 4 -1 -377 -2 -378 45 0 c34 0 46 4 46 15 0 12 46 15
323 17 l322 3 24 -24 c23 -24 24 -28 22 -195 -2 -137 -5 -173 -17 -179 -11 -6
-14 -37 -14 -151 0 -119 -3 -145 -15 -150 -12 -4 -15 -24 -15 -90 0 -65 -3
-85 -15 -90 -11 -4 -15 -22 -15 -75 0 -52 -4 -70 -15 -75 -10 -3 -15 -19 -15
-45 0 -25 -5 -41 -15 -45 -11 -4 -15 -21 -15 -60 0 -39 -4 -55 -15 -60 -10 -3
-15 -19 -15 -45 0 -25 -5 -41 -15 -45 -8 -3 -15 -16 -15 -30 0 -13 -7 -26 -15
-30 -10 -3 -15 -19 -15 -45 0 -25 -5 -41 -15 -45 -8 -3 -15 -16 -15 -30 0 -13
-7 -26 -15 -30 -8 -3 -15 -16 -15 -30 0 -13 -7 -26 -15 -30 -8 -3 -15 -16 -15
-30 0 -13 -7 -26 -15 -30 -8 -3 -15 -16 -15 -28 -1 -13 -14 -34 -30 -48 -17
-13 -30 -32 -30 -42 0 -10 -20 -38 -45 -61 -25 -24 -45 -51 -45 -60 0 -21
-337 -357 -359 -357 -9 0 -28 -13 -41 -30 -14 -16 -35 -29 -48 -30 -12 0 -25
-7 -28 -15 -4 -8 -17 -15 -30 -15 -14 0 -27 -7 -30 -15 -4 -8 -17 -15 -30 -15
-14 0 -27 -7 -30 -15 -4 -8 -16 -15 -28 -15 -12 0 -33 -13 -46 -30 -20 -23
-33 -29 -63 -30 -24 0 -40 -5 -43 -15 -4 -8 -17 -15 -30 -15 -14 0 -27 -7 -30
-15 -5 -11 -21 -15 -60 -15 -39 0 -56 -4 -60 -15 -5 -11 -23 -15 -75 -15 -52
0 -70 -4 -77 -16 -8 -14 -27 -16 -120 -15 -88 2 -112 -1 -119 -13 -7 -12 -49
-15 -248 -17 l-240 -2 1 88 c1 71 5 90 18 97 14 8 17 23 15 75 -2 53 1 67 15
75 14 8 17 23 15 90 -2 66 1 82 15 90 14 8 16 50 16 434 0 368 -2 425 -15 430
-12 5 -15 25 -15 90 0 66 -3 86 -15 90 -11 5 -15 21 -15 60 0 39 -4 56 -15 60
-10 4 -15 20 -15 45 0 26 -5 42 -15 45 -10 4 -15 20 -15 45 0 26 -5 42 -15 45
-10 4 -15 20 -15 50 0 32 -4 44 -15 44 -9 0 -15 9 -15 25 0 22 -30 65 -45 65
-19 0 -45 -45 -45 -79 0 -25 -5 -41 -15 -45 -8 -3 -15 -16 -15 -30 0 -13 -7
-26 -15 -30 -10 -3 -15 -19 -15 -45 0 -25 -5 -41 -15 -45 -11 -4 -15 -21 -15
-60 0 -39 -4 -55 -15 -60 -11 -4 -15 -21 -15 -60 0 -39 -4 -55 -15 -60 -12 -4
-15 -24 -15 -90 0 -65 -3 -85 -15 -90 -13 -5 -15 -57 -15 -385 0 -341 2 -381
16 -389 14 -8 16 -26 15 -106 -2 -79 1 -97 13 -102 12 -5 16 -22 16 -75 0 -51
4 -70 15 -77 12 -6 16 -31 18 -112 l2 -104 -225 3 c-185 2 -226 5 -233 17 -7
12 -31 15 -119 13 -93 -1 -112 1 -120 15 -7 12 -25 16 -77 16 -52 0 -70 4 -75
15 -4 11 -21 15 -60 15 -39 0 -55 4 -60 15 -3 10 -19 15 -45 15 -25 0 -41 5
-45 15 -3 10 -19 15 -43 15 -30 1 -43 7 -63 30 -13 17 -34 30 -46 30 -12 0
-24 7 -28 15 -3 8 -16 15 -30 15 -13 0 -26 7 -30 15 -3 8 -16 15 -30 15 -13 0
-26 7 -30 15 -3 8 -16 15 -28 15 -13 1 -34 14 -48 30 -13 17 -32 30 -42 30 -9
0 -64 47 -121 105 -68 68 -112 105 -126 105 -15 0 -21 6 -21 23 0 13 -13 33
-30 47 -16 14 -29 34 -30 44 0 10 -27 45 -60 78 -33 32 -60 66 -60 76 0 10
-13 29 -30 42 -16 14 -29 35 -30 48 0 12 -7 25 -15 28 -8 4 -15 17 -15 30 0
14 -7 27 -15 30 -8 4 -15 17 -15 30 0 14 -7 27 -15 30 -8 4 -15 17 -15 30 0
14 -7 27 -15 30 -10 4 -15 20 -15 45 0 26 -5 42 -15 45 -8 4 -15 17 -15 30 0
14 -7 27 -15 30 -10 4 -15 20 -15 45 0 26 -5 42 -15 45 -10 4 -15 20 -15 45 0
26 -5 42 -15 45 -11 5 -15 21 -15 60 0 39 -4 56 -15 60 -12 5 -15 25 -15 90 0
66 -3 86 -15 90 -12 5 -15 25 -15 90 0 66 -3 86 -15 90 -12 5 -15 31 -15 150
0 114 -3 145 -14 151 -12 6 -15 40 -17 164 -2 151 -1 156 22 180 l24 24 323
-3 c276 -2 322 -5 322 -17 0 -11 12 -15 46 -15 l45 0 -2 378 -1 377 103 -4
c75 -2 106 -7 112 -17 6 -10 31 -14 91 -14 65 0 85 -3 90 -15 4 -11 21 -15 60
-15 39 0 55 -4 60 -15 3 -10 19 -15 46 -15 29 0 40 -4 40 -15 0 -12 13 -15 60
-15 60 0 60 0 60 29 0 16 6 31 15 35 8 3 15 16 15 30 0 13 7 26 15 30 8 3 15
16 15 28 1 13 14 34 30 48 17 13 30 34 30 46 0 12 7 24 15 28 10 3 15 19 15
43 1 30 7 43 30 63 17 13 30 33 30 45 1 11 14 31 30 45 17 13 30 34 30 46 0
12 7 24 15 28 8 3 15 14 15 25 0 12 31 51 75 94 47 47 75 82 75 96 0 17 6 21
30 21 25 0 30 4 30 24 0 18 40 65 156 180 85 86 163 156 172 156 10 0 37 22
62 49 57 62 92 66 135 15z"/>
<path d="M4730 7811 c0 -5 -81 -90 -180 -189 -103 -102 -180 -187 -180 -198
-1 -11 -14 -30 -30 -44 -17 -13 -30 -32 -30 -42 0 -11 -27 -44 -60 -75 -38
-36 -60 -65 -60 -79 0 -12 -7 -24 -15 -28 -8 -3 -15 -16 -15 -28 -1 -13 -14
-34 -30 -48 -17 -13 -30 -34 -30 -46 0 -12 -7 -24 -15 -28 -8 -3 -15 -15 -15
-26 0 -21 -33 -60 -50 -60 -5 0 -10 -18 -10 -40 0 -29 -5 -42 -21 -50 -20 -11
-20 -12 6 -36 18 -17 38 -24 64 -24 25 0 41 -5 45 -15 3 -8 16 -15 30 -15 13
0 26 -7 30 -15 3 -8 16 -15 30 -15 13 0 26 -7 30 -15 3 -8 16 -15 28 -15 13
-1 34 -14 48 -30 13 -17 34 -30 46 -30 12 0 24 -7 28 -15 3 -8 15 -15 26 -15
12 0 39 -19 62 -45 23 -25 50 -45 62 -45 12 -1 32 -14 46 -30 14 -17 34 -30
47 -30 17 0 23 -6 23 -22 1 -13 20 -42 45 -68 25 -25 45 -48 45 -52 0 -5 20
-8 45 -8 25 0 45 4 45 8 0 17 221 232 238 232 10 0 29 13 42 30 14 16 35 29
48 30 12 0 25 7 28 15 4 8 17 15 30 15 14 0 27 7 30 15 4 8 16 15 28 15 12 0
33 13 46 30 14 16 35 29 48 30 12 0 25 7 28 15 4 8 17 15 30 15 14 0 27 7 30
15 4 10 20 15 50 15 l44 0 0 75 c0 60 -3 75 -15 75 -9 0 -15 9 -15 23 0 13
-13 33 -30 47 -16 14 -29 34 -30 45 0 12 -13 32 -30 45 -16 14 -29 35 -30 48
0 12 -7 25 -15 28 -8 4 -15 15 -15 27 0 11 -20 40 -45 64 -25 23 -45 51 -45
61 0 10 -13 29 -30 42 -16 14 -29 33 -30 43 0 10 -87 106 -195 214 -107 107
-195 199 -195 204 0 5 -20 9 -45 9 -25 0 -45 -4 -45 -9z m78 -155 c39 -20 278
-269 329 -341 177 -253 263 -394 263 -429 0 -22 -68 -76 -152 -120 -141 -76
-251 -149 -339 -227 -49 -43 -98 -83 -109 -89 -25 -14 -47 -3 -120 60 -119
102 -315 232 -461 305 -79 40 -81 56 -21 168 53 100 86 150 187 282 34 44 68
92 77 106 25 40 239 260 273 281 36 22 39 22 73 4z"/>
<path d="M3320 6470 l0 -270 59 0 c43 0 60 -4 65 -15 3 -8 17 -15 31 -15 16 0
25 -6 25 -15 0 -22 46 -19 70 5 16 16 20 33 20 89 0 52 4 70 15 75 11 4 15 22
15 75 0 52 4 70 15 75 10 3 15 19 15 46 0 29 4 40 15 40 12 0 15 13 15 60 l0
60 -45 0 c-33 0 -45 4 -45 15 0 12 -13 15 -59 15 -43 0 -60 4 -65 15 -4 11
-22 15 -76 15 l-70 0 0 -270z m200 110 c24 -24 24 -29 5 -100 -8 -30 -15 -67
-15 -81 0 -15 -8 -36 -17 -48 -17 -20 -19 -21 -40 -6 -21 15 -23 24 -23 111 0
70 4 101 16 119 20 30 47 32 74 5z"/>
<path d="M6084 6725 c-5 -11 -22 -15 -65 -15 -46 0 -59 -3 -59 -15 0 -10 -10
-15 -30 -15 l-30 0 0 -70 c0 -54 4 -72 15 -76 11 -5 15 -21 15 -60 0 -39 4
-56 15 -60 12 -5 15 -28 15 -120 0 -101 2 -116 20 -134 24 -24 70 -27 70 -5 0
11 11 15 40 15 27 0 43 5 46 15 4 10 20 15 50 15 l44 0 0 225 c0 193 2 225 15
225 22 0 19 46 -5 70 -26 26 -147 30 -156 5z m22 -150 c13 -20 16 -43 12 -113
-2 -48 -9 -96 -15 -107 -11 -18 -13 -16 -33 30 -12 28 -27 79 -33 114 -11 61
-11 64 12 82 30 25 37 24 57 -6z"/>
<path d="M3913 6574 c-13 -14 -23 -37 -23 -50 0 -15 -6 -24 -15 -24 -12 0 -15
-13 -15 -59 0 -43 -4 -60 -15 -65 -11 -4 -15 -22 -15 -75 0 -52 -4 -70 -15
-75 -12 -4 -15 -26 -15 -106 l0 -100 29 0 c16 0 31 -6 35 -15 3 -8 16 -15 30
-15 13 0 26 -7 30 -15 3 -8 15 -15 26 -15 28 0 60 -35 60 -65 0 -20 5 -25 25
-25 17 0 40 -15 68 -45 24 -25 51 -45 60 -45 16 0 237 -215 237 -232 0 -4 14
-8 30 -8 27 0 30 3 30 30 0 20 5 30 15 30 12 0 15 13 15 59 0 43 4 60 15 65 8
3 15 16 15 30 0 13 7 26 15 30 8 3 15 16 15 30 0 13 7 26 15 30 8 3 15 16 15
30 0 13 7 26 15 30 8 3 15 16 15 30 0 13 7 26 15 30 8 3 15 15 15 26 0 11 7
23 15 26 15 6 21 34 8 34 -17 0 -83 70 -83 87 0 24 -70 93 -93 93 -10 0 -43
27 -74 60 -32 33 -65 60 -75 60 -10 0 -38 20 -61 45 -24 25 -53 45 -64 45 -12
0 -23 7 -27 15 -3 8 -16 15 -30 15 -13 0 -26 7 -30 15 -3 8 -16 15 -30 15 -13
0 -26 7 -30 15 -3 8 -17 15 -31 15 -16 0 -25 6 -25 15 0 9 -9 15 -24 15 -13 0
-30 9 -37 20 -14 20 -14 19 -36 -6z m139 -173 c114 -49 319 -200 416 -306 49
-53 53 -62 47 -92 -10 -55 -106 -242 -127 -249 -12 -3 -32 5 -56 23 -69 51
-163 127 -220 178 -31 28 -87 75 -124 104 -43 34 -69 63 -73 80 -6 29 26 206
44 239 9 16 35 39 48 42 1 0 21 -8 45 -19z"/>
<path d="M5630 6581 c-8 -16 -21 -21 -50 -21 -29 0 -40 -4 -40 -15 0 -9 -9
-15 -25 -15 -14 0 -28 -7 -31 -15 -4 -8 -17 -15 -30 -15 -14 0 -27 -7 -30 -15
-4 -8 -17 -15 -30 -15 -14 0 -27 -7 -30 -15 -4 -9 -19 -15 -35 -15 -26 0 -29
-4 -29 -30 0 -25 -4 -30 -23 -30 -13 0 -33 -13 -47 -30 -14 -16 -34 -29 -45
-30 -12 0 -45 -26 -78 -60 -33 -35 -65 -60 -77 -60 -26 0 -60 -34 -60 -61 0
-18 -65 -89 -82 -89 -14 0 -8 -28 7 -34 8 -3 15 -17 15 -31 0 -14 5 -25 10
-25 23 0 50 -41 50 -75 0 -22 6 -38 15 -41 8 -4 15 -17 15 -30 0 -14 7 -27 15
-30 8 -4 15 -17 15 -30 0 -14 7 -27 15 -30 10 -4 15 -20 15 -45 0 -26 5 -42
15 -45 10 -4 15 -20 15 -50 l0 -44 45 0 c41 0 45 2 45 24 0 18 30 55 111 135
61 61 118 111 128 111 9 0 28 13 41 30 16 19 35 29 53 30 23 0 27 4 27 30 0
25 4 30 25 30 14 0 28 7 31 15 4 8 17 15 30 15 14 0 27 7 30 15 4 8 17 15 30
15 14 0 27 7 30 15 4 9 19 15 35 15 28 0 29 2 29 45 0 33 -4 45 -15 45 -12 0
-15 16 -15 85 0 67 -3 87 -15 91 -11 5 -15 23 -15 75 0 53 -4 71 -15 75 -11 5
-15 21 -15 60 0 42 -5 58 -24 79 -24 26 -25 26 -36 6z m-42 -173 c16 -20 52
-184 52 -238 0 -67 -5 -76 -64 -115 -97 -65 -191 -136 -276 -209 -94 -80 -122
-98 -142 -91 -19 8 -33 33 -84 151 l-44 104 19 38 c11 20 39 55 63 78 37 35
83 70 273 209 46 34 148 84 171 85 12 0 26 -6 32 -12z"/>
<path d="M2540 5920 c0 -107 3 -132 15 -136 12 -5 15 -28 15 -120 0 -93 3
-116 15 -120 11 -5 15 -23 15 -75 0 -53 4 -71 15 -75 11 -5 15 -21 15 -60 0
-39 4 -56 15 -60 11 -5 15 -21 15 -60 0 -39 4 -56 15 -60 10 -4 15 -20 15 -45
0 -26 5 -42 15 -45 8 -4 15 -17 15 -30 0 -14 7 -27 15 -30 10 -4 15 -20 15
-45 0 -26 5 -42 15 -45 8 -4 15 -16 15 -28 0 -12 13 -33 30 -46 16 -14 29 -35
30 -48 0 -12 7 -25 15 -28 8 -4 15 -17 15 -30 0 -14 7 -27 15 -30 8 -4 15 -15
15 -27 0 -11 20 -40 45 -64 25 -23 45 -50 45 -59 0 -24 284 -304 308 -304 11
0 22 -7 26 -15 3 -8 16 -15 28 -15 13 -1 34 -14 48 -30 13 -17 32 -30 42 -30
19 0 58 -33 58 -50 0 -5 20 -10 44 -10 30 0 46 -5 50 -15 3 -8 16 -15 30 -15
13 0 26 -7 30 -15 3 -10 19 -15 45 -15 25 0 41 -5 45 -15 4 -11 21 -15 61 -15
40 0 55 -4 55 -14 0 -17 98 -27 118 -12 10 7 8 14 -12 33 -14 13 -33 23 -43
23 -10 0 -59 40 -108 90 -50 49 -98 90 -107 90 -27 0 -148 127 -148 156 0 20
-5 24 -30 24 -24 0 -30 4 -30 21 0 14 -28 49 -75 96 -44 43 -75 82 -75 94 0
11 -7 22 -15 25 -8 4 -15 15 -15 27 0 11 -20 40 -45 64 -25 23 -45 52 -45 63
0 11 -7 23 -15 26 -10 4 -15 20 -15 45 0 26 -5 42 -15 45 -8 4 -15 17 -15 30
0 14 -7 27 -15 30 -10 4 -15 20 -15 45 0 26 -5 42 -15 45 -10 4 -15 20 -15 45
0 26 -5 42 -15 45 -13 5 -15 64 -15 440 l0 434 -59 0 c-43 0 -60 4 -65 15 -4
13 -37 15 -211 15 l-205 0 0 -130z m381 10 c46 -25 49 -49 49 -388 0 -346 3
-367 66 -546 14 -39 34 -96 45 -126 31 -87 142 -265 258 -414 88 -111 107
-146 81 -146 -6 0 -42 21 -80 46 -125 82 -294 275 -392 449 -9 17 -32 57 -51
90 -31 54 -66 132 -110 250 -13 36 -48 175 -93 377 -8 37 -19 113 -25 170 -5
57 -12 122 -15 146 -7 49 13 88 48 95 47 9 200 7 219 -3z"/>
<path d="M6594 6035 c-5 -11 -22 -15 -65 -15 l-59 0 0 -434 c0 -376 -2 -435
-15 -440 -11 -4 -15 -21 -15 -60 0 -39 -4 -55 -15 -60 -8 -3 -15 -16 -15 -30
0 -13 -7 -26 -15 -30 -10 -3 -15 -19 -15 -45 0 -25 -5 -41 -15 -45 -8 -3 -15
-16 -15 -30 0 -13 -7 -26 -15 -30 -8 -3 -15 -16 -15 -28 -1 -13 -14 -34 -30
-48 -17 -13 -30 -34 -30 -46 0 -12 -7 -24 -15 -28 -8 -3 -15 -14 -15 -25 0
-12 -31 -51 -75 -94 -41 -41 -75 -81 -75 -90 0 -22 -367 -387 -390 -387 -28 0
-103 -75 -87 -88 18 -15 117 -3 117 14 0 10 13 14 40 14 27 0 43 5 46 15 4 10
20 15 45 15 26 0 42 5 45 15 4 8 17 15 30 15 14 0 27 7 30 15 4 10 20 15 50
15 24 0 44 5 44 10 0 17 39 50 58 50 10 0 29 13 42 30 14 16 35 29 48 30 12 0
25 7 28 15 4 8 15 15 26 15 25 0 338 311 338 337 1 10 14 29 30 43 17 13 30
34 30 46 0 12 7 24 15 28 8 3 15 16 15 28 1 13 14 34 30 48 17 13 30 34 30 46
0 12 7 24 15 28 8 3 15 16 15 30 0 13 7 26 15 30 10 3 15 19 15 45 0 25 5 41
15 45 8 3 15 16 15 30 0 13 7 26 15 30 10 3 15 19 15 45 0 25 5 41 15 45 11 4
15 21 15 60 0 39 4 55 15 60 11 4 15 22 15 75 0 52 4 70 15 75 11 4 15 21 15
60 0 39 4 55 15 60 12 4 15 27 15 120 0 92 3 115 15 120 12 4 15 29 15 136 l0
130 -205 0 c-174 0 -207 -2 -211 -15z m256 -108 c41 -21 54 -60 39 -115 -6
-26 -15 -90 -19 -142 -7 -86 -15 -128 -49 -270 -6 -25 -20 -88 -32 -140 -24
-107 -113 -335 -167 -425 -19 -33 -63 -103 -98 -155 -100 -153 -315 -350 -381
-350 -17 0 -6 28 27 65 61 69 154 199 200 280 68 120 93 172 127 265 71 196
81 270 82 653 1 349 0 346 156 347 53 0 100 -5 115 -13z"/>
<path d="M3333 5963 c-10 -4 -13 -98 -13 -424 0 -366 2 -419 15 -419 9 0 15
-9 15 -25 0 -14 7 -28 15 -31 8 -4 15 -17 15 -30 0 -14 7 -27 15 -30 8 -4 15
-17 15 -30 0 -14 7 -27 15 -30 8 -4 15 -17 15 -30 0 -14 7 -27 15 -30 9 -4 15
-19 15 -35 0 -16 4 -29 10 -29 18 0 110 -101 110 -121 0 -11 7 -22 15 -25 8
-4 15 -17 15 -30 0 -29 33 -64 60 -64 28 0 60 -35 60 -65 0 -20 5 -25 25 -25
30 0 125 -92 125 -120 0 -26 34 -60 60 -60 10 0 24 -9 30 -20 6 -11 16 -17 25
-14 22 9 18 51 -5 64 -14 8 -20 21 -20 48 0 30 -6 41 -30 57 -19 12 -30 29
-30 43 0 12 -7 25 -15 28 -8 4 -15 17 -15 30 0 14 -7 27 -15 30 -8 4 -15 17
-15 30 0 14 -7 27 -15 30 -8 4 -15 17 -15 30 0 14 -7 27 -15 30 -10 4 -15 20
-15 45 0 26 -5 42 -15 45 -8 4 -15 17 -15 30 0 14 -7 27 -15 30 -10 4 -15 20
-15 45 0 26 -5 42 -15 45 -10 4 -15 20 -15 45 0 26 -5 42 -15 45 -11 5 -15 21
-15 60 0 39 -4 56 -15 60 -10 4 -15 20 -15 45 0 26 -5 42 -15 45 -11 5 -15 23
-15 75 0 53 -4 71 -15 75 -12 5 -15 25 -15 90 0 66 -3 86 -15 90 -12 5 -15 31
-15 149 l0 143 -36 36 c-32 32 -41 36 -90 36 -39 0 -54 4 -54 14 0 11 -24 29
-33 25 -1 0 -8 -3 -14 -6z m141 -495 c4 -34 14 -74 22 -89 8 -16 14 -43 14
-60 0 -18 13 -76 29 -128 44 -142 84 -311 76 -319 -13 -13 -90 101 -144 213
-41 84 -46 127 -36 320 6 116 10 144 20 135 7 -6 16 -38 19 -72z"/>
<path d="M6140 5945 c0 -11 -11 -15 -39 -15 -31 0 -46 -7 -75 -36 l-36 -36 0
-143 c0 -118 -3 -144 -15 -149 -12 -4 -15 -29 -15 -135 0 -105 -3 -130 -15
-135 -11 -4 -15 -21 -15 -60 0 -39 -4 -55 -15 -60 -11 -4 -15 -21 -15 -60 0
-39 -4 -55 -15 -60 -10 -3 -15 -19 -15 -45 0 -25 -5 -41 -15 -45 -8 -3 -15
-16 -15 -30 0 -13 -7 -26 -15 -30 -10 -3 -15 -19 -15 -45 0 -25 -5 -41 -15
-45 -10 -3 -15 -19 -15 -45 0 -25 -5 -41 -15 -45 -8 -3 -15 -16 -15 -30 0 -13
-7 -26 -15 -30 -8 -3 -15 -16 -15 -30 0 -13 -7 -26 -15 -30 -8 -3 -15 -16 -15
-30 0 -13 -7 -26 -15 -30 -8 -3 -15 -16 -15 -30 0 -13 -7 -26 -15 -30 -8 -3
-15 -17 -15 -31 0 -16 -6 -25 -15 -25 -9 0 -15 -9 -15 -25 0 -14 -7 -28 -15
-31 -8 -4 -15 -17 -15 -30 0 -13 -9 -28 -20 -34 -27 -14 -25 -28 5 -36 21 -5
36 6 107 82 46 48 125 129 176 179 50 51 92 100 92 109 0 9 20 36 45 59 25 24
45 52 45 63 1 10 14 30 30 44 17 13 30 32 30 42 0 19 33 58 50 58 6 0 10 20
10 44 0 30 5 46 15 50 8 3 15 16 15 30 0 13 7 26 15 30 10 3 15 19 15 45 0 25
5 41 15 45 13 5 15 59 15 406 l0 400 -45 0 c-33 0 -45 -4 -45 -15z m-36 -769
c-23 -88 -113 -266 -135 -266 -5 0 -9 2 -9 5 0 14 30 117 39 134 6 11 11 32
11 47 0 29 18 105 50 215 12 39 20 95 20 140 0 47 5 80 13 88 21 21 31 -286
11 -363z"/>
<path d="M3813 5753 c-20 -8 -18 -232 2 -239 11 -5 15 -23 15 -75 0 -53 4 -71
15 -75 11 -5 15 -21 15 -60 0 -39 4 -56 15 -60 10 -4 15 -20 15 -45 0 -26 5
-42 15 -45 11 -5 15 -21 15 -60 0 -39 4 -56 15 -60 8 -4 15 -17 15 -30 0 -14
7 -27 15 -30 11 -5 15 -23 15 -75 0 -53 4 -71 15 -75 8 -4 15 -16 15 -28 0
-12 13 -33 30 -46 23 -20 29 -33 30 -63 0 -24 5 -40 15 -43 8 -4 15 -17 15
-30 0 -14 7 -27 15 -30 8 -4 15 -16 15 -28 0 -12 13 -33 30 -46 17 -15 29 -35
30 -50 0 -16 10 -32 30 -45 18 -12 30 -29 30 -42 0 -25 70 -101 88 -95 21 7
15 78 -8 93 -19 13 -20 26 -21 273 0 225 2 261 15 268 13 7 16 30 16 123 0 96
3 115 15 115 10 0 15 10 15 30 0 17 -3 30 -7 30 -17 0 -83 70 -83 87 0 11 -13
30 -30 43 -16 14 -29 33 -30 44 0 22 -162 186 -184 186 -22 0 -56 36 -56 60 0
28 -35 60 -65 60 -14 0 -25 3 -25 8 0 10 -49 62 -58 61 -4 0 -13 -3 -19 -6z
m190 -293 c45 -26 173 -181 211 -255 21 -39 21 -198 1 -280 -8 -33 -14 -79
-15 -102 0 -93 -26 -96 -74 -10 -19 34 -38 76 -41 92 -4 17 -20 68 -36 114
-16 46 -29 91 -29 100 0 9 -11 52 -24 96 -45 150 -56 192 -56 222 0 49 12 53
63 23z"/>
<path d="M5723 5740 c-10 -11 -28 -20 -40 -20 -13 0 -23 -4 -23 -8 0 -16 -130
-142 -146 -142 -22 0 -184 -164 -184 -186 -1 -11 -14 -30 -30 -44 -17 -13 -30
-32 -30 -42 0 -19 -33 -58 -50 -58 -6 0 -10 -55 -10 -145 0 -123 2 -147 16
-152 13 -5 15 -44 13 -330 -1 -214 2 -328 9 -335 16 -16 34 2 28 28 -5 17 -2
26 9 30 8 4 15 18 15 33 0 18 9 32 30 46 21 14 30 28 30 46 0 15 7 29 15 33 8
3 15 16 15 28 1 13 14 34 30 48 17 13 30 34 30 46 0 12 7 24 15 28 8 3 15 16
15 30 0 13 7 26 15 30 8 3 15 16 15 30 0 13 7 26 15 30 10 3 15 19 15 45 0 25
5 41 15 45 8 3 15 16 15 30 0 13 7 26 15 30 10 3 15 19 15 45 0 25 5 41 15 45
8 3 15 16 15 30 0 13 7 26 15 30 11 4 15 21 15 60 0 39 4 55 15 60 10 3 15 19
15 45 0 25 5 41 15 45 11 4 15 22 15 75 0 52 4 70 15 75 12 4 15 26 15 106 0
82 3 100 15 100 22 0 22 115 -1 124 -22 8 -22 8 -41 -14z m-99 -285 c-3 -104
-55 -286 -144 -506 -98 -243 -130 -277 -130 -135 0 28 -7 78 -15 109 -19 74
-20 226 -1 272 37 88 182 262 238 285 38 15 53 8 52 -25z"/>
</g>
</svg>
