<!--?xml version="1.0" encoding="UTF-8" standalone="no"?-->
<svg version="1.0" width="100%" height="100%" viewBox="0 0 957.000000 1110.000000" preserveAspectRatio="xMidYMid meet" id="svg12" sodipodi:docname="logo.svg" xml:space="preserve" inkscape:version="1.4.2 (ebf0e94, 2025-05-08)" xmlns:inkscape="http://www.inkscape.org/namespaces/inkscape" xmlns:sodipodi="http://sodipodi.sourceforge.net/DTD/sodipodi-0.dtd" xmlns="http://www.w3.org/2000/svg" xmlns:svg="http://www.w3.org/2000/svg"><defs id="defs12"></defs><sodipodi:namedview id="namedview12" pagecolor="#ffffff" bordercolor="#000000" borderopacity="0.25" inkscape:showpageshadow="2" inkscape:pageopacity="0.0" inkscape:pagecheckerboard="0" inkscape:deskcolor="#d1d1d1" inkscape:document-units="pt" inkscape:zoom="0.5222973" inkscape:cx="91.901682" inkscape:cy="548.53816" inkscape:window-width="1920" inkscape:window-height="991" inkscape:window-x="-9" inkscape:window-y="-9" inkscape:window-maximized="1" inkscape:current-layer="svg12"></sodipodi:namedview><metadata id="metadata1">
Created by potrace 1.10, written by Peter Selinger 2001-2011
</metadata><g transform="matrix(0.1,0,0,-0.1,-4.3078913,1105.6921)" fill="#000000" stroke="none" id="g12"></g><path id="path12" style="fill: rgb(0, 0, 0); stroke: rgb(0, 0, 0); stroke-width: 2;" d="m 418.14933,695.51453 c -6.08959,-0.27776 -9.86439,-0.77279 -10.4625,-1.37204 -0.51463,-0.51563 -2.30258,-0.94555 -3.9732,-0.9554 -1.67063,-0.01 -4.3875,-0.36738 -6.0375,-0.79455 -1.65,-0.42716 -5.19375,-1.23678 -7.875,-1.79915 -6.13331,-1.28642 -12.18267,-3.032 -14.14264,-4.08095 -0.82981,-0.4441 -2.17821,-0.80745 -2.99643,-0.80745 -1.79502,0 -8.5718,-3.26669 -11.87339,-5.72345 -1.3131,-0.97711 -2.91969,-1.77655 -3.57019,-1.77655 -0.6505,0 -2.86331,-1.18125 -4.91735,-2.625 -2.05404,-1.44375 -4.15995,-2.63172 -4.67981,-2.63992 -0.51985,-0.008 -2.8381,-1.27383 -5.15165,-2.8125 -2.31356,-1.53867 -6.14706,-4.08245 -8.5189,-5.65283 -2.37183,-1.57039 -4.48391,-3.51102 -4.69351,-4.3125 -0.20959,-0.80149 -0.81842,-1.45725 -1.35295,-1.45725 -0.8579,0 -4.7329,-3.35363 -11.97818,-10.36655 -3.31461,-3.2083 -7.29725,-8.12309 -11.0477,-13.63345 -1.82491,-2.68125 -5.23525,-7.54466 -7.57853,-10.80757 -2.34328,-3.26292 -4.65359,-7.31292 -5.13403,-9 -0.48044,-1.68709 -1.28163,-3.57368 -1.78042,-4.19243 -0.4988,-0.61875 -1.16106,-1.96875 -1.4717,-3 -0.31063,-1.03125 -0.81772,-2.04375 -1.12685,-2.25 -1.07284,-0.71578 -5.05071,-8.70005 -5.6154,-11.27106 -0.31226,-1.42174 -2.0236,-6.4705 -3.80297,-11.21946 -4.31406,-11.51382 -9.3174,-32.68987 -9.3174,-39.43483 0,-1.31233 -0.45533,-3.69412 -1.01184,-5.29286 -0.55651,-1.59874 -1.22364,-6.11304 -1.4825,-10.03179 -0.25887,-3.91875 -0.78377,-8.19148 -1.16644,-9.49494 -0.38267,-1.30347 -0.81241,-10.82536 -0.95499,-21.15976 -0.3004,-21.77358 -0.54001,-20.98967 6.54032,-21.39661 2.44775,-0.14068 8.6692,-0.50367 13.82545,-0.80664 6.45116,-0.37906 14.58849,-0.16704 26.09157,0.67984 9.19412,0.67688 17.04099,1.0302 17.4375,0.78514 0.44141,-0.27281 0.72093,-11.85 0.72093,-29.85942 0,-36.44098 -0.90452,-34.15796 12.54727,-31.66956 3.20525,0.59293 8.19023,1.44792 11.07773,1.89998 12.10703,1.89543 14.37743,2.34659 16.875,3.35328 1.44375,0.58192 4.43261,1.24002 6.64191,1.46243 2.2093,0.22242 4.40305,0.70459 4.875,1.07151 2.5803,2.00602 7.98309,2.59257 7.98309,0.86668 0,-0.96701 2.78398,-6.77136 5.20738,-10.85693 1.22339,-2.0625 3.75995,-6.82698 5.6368,-10.58773 1.87685,-3.76075 4.25471,-8.07886 5.28414,-9.59581 1.02942,-1.51694 1.87168,-3.03206 1.87168,-3.36692 0,-0.33486 1.13196,-2.09175 2.51546,-3.90419 1.3835,-1.81244 2.75624,-4.05473 3.05054,-4.98285 0.29429,-0.92813 0.82709,-1.6875 1.184,-1.6875 0.3569,0 0.83819,-0.59063 1.06953,-1.3125 0.23133,-0.72188 1.5197,-2.56307 2.86304,-4.09154 1.34334,-1.52847 5.47993,-6.39377 9.19243,-10.81179 3.7125,-4.41802 8.05054,-9.24245 9.6401,-10.72096 1.58955,-1.47852 7.66455,-7.41993 13.5,-13.20314 20.80151,-20.61532 21.90547,-20.9493 34.2349,-10.35707 6.80943,5.85 10.10629,8.497 10.58308,8.497 0.30126,0 0.75728,0.95403 1.01338,2.12007 0.31353,1.42749 1.55149,2.80642 3.78955,4.22108 1.82815,1.15556 3.51502,2.70319 3.74862,3.43918 0.23359,0.73598 2.29101,2.93258 4.57205,4.88133 2.28103,1.94875 5.53624,5.43772 7.2338,7.75326 1.69756,2.31554 5.37679,6.7341 8.17606,9.81902 2.79927,3.08492 5.29167,6.529 5.53865,7.65351 0.24698,1.1245 1.10626,2.25314 1.90951,2.50808 0.80325,0.25494 2.14683,1.70462 2.98573,3.2215 2.18474,3.95039 4.3788,7.18759 7.95942,11.74366 1.72417,2.19386 3.55067,5.37671 4.05889,7.07298 0.50821,1.69628 1.37566,3.45896 1.92764,3.91707 0.55199,0.45811 1.00362,1.23689 1.00362,1.73064 0,0.49374 1.33914,2.69256 2.97586,4.88627 1.63673,2.1937 3.3658,5.20778 3.84238,6.69795 1.88891,5.90618 4.20233,6.96943 10.14425,4.66233 4.56339,-1.77185 16.14715,-4.57793 18.89815,-4.57793 1.13058,0 2.72132,-0.46037 3.53498,-1.02303 0.84716,-0.58584 4.68455,-1.24268 8.97938,-1.53699 4.125,-0.28267 8.81095,-0.86002 10.41322,-1.283 3.30269,-0.87186 5.81397,-0.44765 7.53433,1.27271 1.02893,1.02893 1.1789,4.83655 1.18893,30.18638 0.0125,31.68403 -0.0338,31.34821 4.22596,30.59182 14.88612,-2.64325 56.39565,-1.66191 59.21122,1.39982 2.96337,3.22246 1.15479,41.37253 -3.07635,64.89229 -0.63076,3.50625 -1.47463,8.4 -1.87525,10.875 -1.04957,6.48414 -3.05837,14.69951 -4.12623,16.875 -0.5062,1.03125 -1.14484,3.225 -1.4192,4.875 -0.4648,2.79533 -1.46165,5.75101 -3.79424,11.25 -0.52493,1.2375 -1.72668,4.6125 -2.67055,7.5 -0.94387,2.8875 -1.96073,5.5875 -2.25969,6 -0.29896,0.4125 -0.79354,1.59375 -1.09907,2.625 -0.30553,1.03125 -0.98349,2.38125 -1.5066,3 -1.41634,1.67531 -5.37553,9.35725 -6.35996,12.34008 -0.4734,1.43441 -2.30534,4.22282 -4.07099,6.19647 -1.76564,1.97365 -3.34645,3.92627 -3.5129,4.33917 -1.77553,4.40443 -13.99122,18.69241 -22.65455,26.49771 -1.52519,1.37414 -2.77308,2.75311 -2.77308,3.06437 0,0.57997 -8.91517,7.25417 -14.02329,10.49831 -2.74247,1.74173 -9.30116,5.37176 -15.60171,8.63507 -1.65,0.8546 -4.35,2.45911 -6,3.56557 -1.65,1.10647 -5.19375,2.74029 -7.875,3.63071 -2.68125,0.89043 -5.2125,1.89556 -5.625,2.23363 -0.4125,0.33807 -2.1,0.85805 -3.75,1.15551 -1.65,0.29746 -3.53551,0.81629 -4.19002,1.15296 -1.65558,0.85159 -15.83126,3.69044 -18.42807,3.69044 -1.17286,0 -4.49484,0.50653 -7.38219,1.12563 -24.59414,5.27339 -54.73217,2.17155 -53.11651,-5.46683 0.58561,-2.76859 1.40042,-7.22755 1.81069,-9.9088 0.41027,-2.68125 1.2376,-5.93851 1.83852,-7.23835 0.60092,-1.29984 1.10728,-3.83109 1.12524,-5.625 0.018,-1.79391 0.37886,-4.7804 0.80198,-6.63665 2.55207,-11.19592 3.67675,-54.94319 1.8221,-70.875 -1.89088,-16.24302 -2.72159,-21.52874 -3.83083,-24.375 -0.56265,-1.44375 -1.40295,-4.81875 -1.86734,-7.5 -0.46439,-2.68125 -2.1638,-8.28243 -3.77646,-12.44706 -1.61266,-4.16463 -2.93211,-7.95829 -2.93211,-8.43035 0,-8.22293 -7.52307,-10.49633 -8.7796,-2.65311 -0.25601,1.59803 -1.42284,5.04635 -2.59294,7.66293 -1.1701,2.61658 -2.12954,5.14783 -2.13208,5.625 -0.003,0.47717 -0.49617,1.80997 -1.09696,2.96177 -0.60079,1.1518 -1.28882,3.34555 -1.52896,4.875 -0.24014,1.52945 -0.90427,4.46832 -1.47583,6.53082 -1.9972,7.20693 -2.72277,11.36768 -4.96992,28.5 -1.49549,11.40166 -1.75628,40.41183 -0.43824,48.75 0.65205,4.125 1.39861,10.36875 1.65903,13.875 0.26041,3.50625 0.95318,8.67519 1.53949,11.48653 0.5863,2.81134 1.06601,6.73839 1.06601,8.72677 0,1.98838 0.50417,4.58194 1.12038,5.76347 0.61621,1.18152 1.12246,2.93658 1.125,3.90013 0.003,0.96354 0.58503,3.93012 1.29443,6.59239 2.10693,7.90707 -4.17762,8.91538 -44.19161,7.09025 z m 141.9018,-28.94557 c 4.33125,-1.36595 9.5625,-3.3891 11.625,-4.4959 2.0625,-1.10679 6.42788,-3.41426 9.70085,-5.12771 3.27296,-1.71345 6.47921,-3.55671 7.125,-4.09613 0.64578,-0.53942 3.7054,-2.65267 6.79915,-4.69611 8.78519,-5.80266 10.59979,-7.25042 14.80376,-11.81105 2.16081,-2.34414 5.2005,-5.61207 6.75485,-7.26207 4.08819,-4.33977 10.51615,-12.60934 11.42771,-14.70176 1.14958,-2.63879 4.37177,-8.06792 7.07644,-11.92324 1.30223,-1.85625 3.82111,-7.04453 5.59749,-11.52951 1.77639,-4.48498 3.99299,-9.58988 4.92577,-11.34421 0.93279,-1.75433 1.9228,-4.89955 2.20003,-6.98937 0.27722,-2.08983 0.96878,-4.91618 1.5368,-6.2808 0.56802,-1.36461 1.62139,-5.51861 2.34084,-9.23111 0.71944,-3.7125 1.58863,-7.11359 1.93153,-7.55798 0.3429,-0.44439 0.97148,-3.26187 1.39684,-6.26106 0.42537,-2.9992 1.09239,-6.85436 1.48228,-8.56703 1.61477,-7.09318 3.39025,-34.16611 2.34296,-35.72602 -1.81432,-2.70239 -38.29501,-0.35612 -41.30874,2.65679 -0.97015,0.96989 -1.15827,5.71655 -1.305,32.92712 -0.10874,20.16546 -0.47433,32.97966 -0.99958,35.03602 -0.45547,1.78319 -1.1002,4.76091 -1.43273,6.61716 -0.61027,3.40663 -2.99956,9.9783 -3.98677,10.96552 -0.29397,0.29396 -0.54593,1.06885 -0.55993,1.72198 -0.014,0.65312 -0.67754,2.5375 -1.47455,4.1875 -0.79701,1.65 -1.46056,3.5493 -1.47455,4.22066 -0.014,0.67137 -0.5317,1.64082 -1.15045,2.15434 -0.61875,0.51351 -1.125,1.27007 -1.125,1.68122 0,0.88566 -4.95252,9.16082 -6.28892,10.50814 -0.51042,0.5146 -1.73961,2.5649 -2.73152,4.55623 -1.61724,3.24673 -6.49284,9.16449 -15.04043,18.25534 -1.61652,1.71926 -2.93913,3.42938 -2.93913,3.80026 0,0.7354 -12.50039,13.01218 -16.10861,15.82046 -1.22849,0.95613 -2.80711,2.61267 -3.50806,3.6812 -0.70094,1.06852 -2.56707,2.81563 -4.14695,3.88246 -13.52323,9.13167 -11.54942,10.6252 6.51362,4.92866 z m -163.3481,-2.05147 c -3.35691,-2.57813 -6.29611,-5.24738 -6.53155,-5.93168 -0.23543,-0.6843 -2.3557,-2.69339 -4.71171,-4.46465 -2.356,-1.77125 -5.46489,-4.42212 -6.90864,-5.89082 -1.44375,-1.46869 -4.03445,-3.77134 -5.75712,-5.11701 -1.8572,-1.45076 -3.32229,-3.31254 -3.59933,-4.5739 -0.25697,-1.16998 -1.21002,-2.46816 -2.11789,-2.88484 -0.90786,-0.41668 -2.91697,-2.23518 -4.46468,-4.0411 -1.54771,-1.80593 -5.01976,-5.8065 -7.71567,-8.89017 -2.69591,-3.08366 -5.10969,-6.45866 -5.36396,-7.5 -0.25427,-1.04133 -0.6746,-2.06208 -0.93408,-2.26833 -2.12467,-1.68887 -8.40921,-11.71174 -9.4053,-15 -0.31239,-1.03125 -1.36344,-3.63789 -2.33567,-5.79253 -0.97223,-2.15464 -1.99167,-4.85464 -2.26541,-6 -0.27375,-1.14536 -0.75762,-2.41997 -1.07528,-2.83247 -3.34249,-4.34047 -4.36655,-16.09389 -4.41924,-50.72067 -0.0356,-23.42654 -0.2631,-30.64583 -0.98387,-31.22837 -2.98421,-2.41191 -38.86579,-4.56029 -41.3756,-2.47733 -2.42202,2.01009 1.90171,48.59847 4.84472,52.20209 0.34843,0.42664 0.99041,2.78914 1.42661,5.25 0.4362,2.46085 1.4893,7.00553 2.34023,10.09928 0.85092,3.09375 1.84027,6.77811 2.19854,8.18748 0.35828,1.40937 1.14942,3.60312 1.75811,4.875 0.60868,1.27188 1.67037,3.83127 2.35932,5.68752 0.68894,1.85625 1.90129,4.62311 2.6941,6.14859 0.79281,1.52547 1.44147,3.1353 1.44147,3.5774 0,0.4421 0.92417,2.23148 2.05371,3.97641 1.12955,1.74493 2.47346,4.01635 2.98647,5.0476 0.51302,1.03125 2.28031,3.73125 3.92731,6 1.647,2.26875 3.00308,4.54178 3.01353,5.05117 0.0293,1.43018 7.88166,11.28613 13.1813,16.54464 2.61676,2.59645 4.94397,5.29645 5.17158,6 0.22761,0.70355 1.51122,2.0269 2.85247,2.94076 1.34125,0.91387 3.49298,2.60137 4.78163,3.75 1.28864,1.14864 3.31364,2.61767 4.5,3.26452 1.18635,0.64686 3.67575,1.99686 5.532,3 1.85625,1.00315 3.6449,2.24578 3.97477,2.76141 0.32987,0.51562 1.09984,0.9375 1.71104,0.9375 0.61119,0 1.30553,0.50625 1.54297,1.125 0.23744,0.61875 0.87774,1.125 1.42289,1.125 0.54515,0 1.43717,0.43937 1.98226,0.97639 1.23172,1.21347 7.51081,4.27361 8.76901,4.27361 0.51115,0 2.34521,0.63783 4.07571,1.41741 1.73049,0.77957 5.0026,2.00853 7.27135,2.73102 2.26875,0.72249 4.96875,1.76317 6,2.31263 7.19266,3.83233 12.10168,0.92089 6.1519,-3.64856 z m 10.0394,-21.3712 c -0.80662,-0.80662 -1.23484,0.32306 -0.66861,1.76385 0.53115,1.35155 0.57127,1.35389 0.83395,0.0486 0.15178,-0.75417 0.0774,-1.56979 -0.16534,-1.8125 z m 139.54714,-4.49802 c 2.4484,-2.81932 2.59588,-2.96968 4.9877,-5.08502 1.15563,-1.02204 2.27563,-1.85826 2.48889,-1.85826 1.29833,0 16.1585,-16.18014 16.51994,-17.98734 0.23139,-1.15695 1.7578,-3.72161 3.39201,-5.69924 1.63422,-1.97763 3.3212,-4.24946 3.74884,-5.04851 0.42763,-0.79905 1.92427,-2.95514 3.32585,-4.79131 1.40158,-1.83618 2.54833,-3.80213 2.54833,-4.36878 0,-0.56666 0.46053,-1.30018 1.02339,-1.63006 1.20025,-0.70341 3.47661,-4.93134 3.47661,-6.45717 0,-0.58129 1.0141,-3.04493 2.25355,-5.47474 6.4143,-12.57456 7.97039,-73.53014 1.87145,-73.30915 -9.92398,0.35958 -15.36048,3.86354 -15.40793,9.9308 -0.0181,2.31577 -0.36291,6.74175 -0.7662,9.8355 -0.4033,3.09375 -1.05661,9.4634 -1.45182,14.15477 -0.3952,4.69138 -1.01738,8.91013 -1.38263,9.375 -0.36524,0.46488 -0.88406,3.60335 -1.15293,6.97438 -0.26887,3.37103 -0.9894,7.54784 -1.60117,9.28179 -0.61178,1.73396 -1.11232,3.94525 -1.11232,4.91399 0,1.88049 -5.69105,19.62426 -6.70627,20.90906 -0.3329,0.4213 -0.78437,1.77851 -1.00326,3.01601 -0.57836,3.26974 -2.5216,8.38113 -5.06529,13.32346 -1.22385,2.3779 -2.22518,4.95566 -2.22518,5.72834 0,0.77268 -1.18125,3.12211 -2.625,5.22096 -1.44375,2.09884 -2.625,4.20194 -2.625,4.67355 0,0.8082 -4.56565,8.85513 -6.28559,11.07831 -0.72605,0.93848 -2.18303,4.46299 -3.23786,7.83257 -0.5439,1.73743 4.26416,-1.3749 7.01189,-4.53891 z m -30.21965,0.98856 c 0.67716,-1.03349 1.23121,-2.57653 1.23121,-3.42899 0,-0.85246 0.48267,-1.73515 1.07259,-1.96152 0.58993,-0.22638 1.44719,-1.31266 1.90503,-2.41396 1.071,-2.57623 3.1257,-6.39472 3.70066,-6.87737 0.75534,-0.63407 2.29353,-3.24545 3.5342,-6 0.65027,-1.44375 3.53677,-7.45116 6.41443,-13.34979 2.87766,-5.89863 6.20523,-13.49238 7.39461,-16.875 1.18937,-3.38262 3.04069,-8.51271 4.11403,-11.40021 1.07334,-2.8875 2.24884,-6.6 2.61222,-8.25 0.36338,-1.65 1.47907,-6.375 2.47931,-10.5 2.60432,-10.74032 5.34474,-29.74065 4.6746,-32.41073 -0.80318,-3.20011 -5.6132,-1.28296 -11.37413,4.53345 -3.98974,4.02816 -10.46617,9.50228 -11.24215,9.50228 -0.93927,0 -13.03529,12.75122 -13.03632,13.74246 -5e-4,0.48539 -0.8806,1.89504 -1.95577,3.13254 -1.07516,1.2375 -3.07175,3.98465 -4.43684,6.10477 -1.3651,2.12013 -2.84751,4.08067 -3.29424,4.35676 -0.99354,0.61405 -1.0082,7.81646 -0.0252,12.41347 2.39806,11.21516 3.50276,38.26798 2.13476,52.27795 -1.09,11.16286 0.15725,13.41679 4.09705,7.40389 z m -83.48561,-0.24434 c 0.0183,-1.54688 0.004,-11.92754 -0.0309,-23.06815 -0.052,-16.45084 0.15304,-20.87103 1.09182,-23.53179 0.63574,-1.80188 1.15844,-5.68059 1.16156,-8.61936 0.003,-2.93876 0.34902,-7.45905 0.76869,-10.04508 0.55959,-3.44829 0.52882,-5.13949 -0.1154,-6.34323 -1.05302,-1.96759 -7.90314,-10.90516 -9.80784,-12.79661 -0.74312,-0.73794 -1.35112,-1.89376 -1.35112,-2.56849 0,-1.3472 -11.25123,-12.45551 -14.25,-14.06897 -1.03125,-0.55486 -3.43085,-2.81153 -5.33245,-5.01483 -1.90159,-2.20329 -5.68142,-5.41611 -8.39963,-7.13959 -6.792,-4.30648 -7.15439,-2.31854 -3.1689,17.3836 0.58411,2.8875 1.45818,7.6125 1.94238,10.5 0.4842,2.8875 1.34309,6.43125 1.90865,7.875 0.99382,2.537 1.71445,5.19486 3.55859,13.125 0.47963,2.0625 1.10534,4.10962 1.39048,4.54917 1.29578,1.99749 3.6357,9.37205 4.26934,13.45537 0.88571,5.70768 2.21397,9.21643 4.74527,12.53513 1.10343,1.44667 2.23953,3.60457 2.52467,4.79532 0.28514,1.19075 0.81009,2.53793 1.16657,2.99373 1.1667,1.49176 4.39503,7.85695 4.39503,8.66553 0,0.43444 0.9699,2.01971 2.15532,3.52282 1.18543,1.50311 2.80909,3.95882 3.60814,5.45714 0.79905,1.49831 2.0229,3.29429 2.71968,3.99107 0.69677,0.69677 1.26686,1.88164 1.26686,2.63305 0,0.7514 0.50625,1.56045 1.125,1.79789 0.61875,0.23743 1.125,0.94854 1.125,1.58024 0,0.63169 0.3375,1.14854 0.75,1.14854 0.4125,0 0.76493,-1.26563 0.78318,-2.8125 z m -27.78318,-0.57019 c 0,-1.73869 -0.82772,-3.8437 -2.4375,-6.19889 -1.34063,-1.96141 -3.10156,-4.91108 -3.91319,-6.55481 -0.81162,-1.64374 -2.07725,-3.7935 -2.8125,-4.77726 -0.73524,-0.98375 -1.33681,-2.56696 -1.33681,-3.51823 0,-0.95128 -0.31153,-1.92214 -0.6923,-2.15746 -0.38076,-0.23533 -0.90871,-1.41317 -1.17321,-2.61744 -0.2645,-1.20427 -0.96546,-2.59172 -1.5577,-3.08323 -0.59223,-0.49151 -1.07679,-1.41214 -1.07679,-2.04585 0,-0.6337 -1.13862,-3.5455 -2.53026,-6.47066 -2.63857,-5.54614 -4.97982,-12.07136 -4.97345,-13.86133 0.002,-0.57357 -0.62979,-2.42982 -1.40407,-4.125 -1.33202,-2.91631 -2.73303,-7.53966 -3.54759,-11.70715 -0.20156,-1.03125 -0.82737,-3.5625 -1.39069,-5.625 -1.89969,-6.95548 -3.46899,-14.38647 -4.21495,-19.95884 -1.86719,-13.94805 -2.09908,-16.50062 -2.14262,-23.58532 -0.0297,-4.83692 -0.38279,-7.97008 -0.98387,-8.73109 -1.35715,-1.71825 -7.27971,-5.24114 -9.92148,-5.90155 -1.24631,-0.31156 -3.37808,-1.01334 -4.73726,-1.5595 -4.09242,-1.64447 -5.12785,15.46081 -3.18472,52.6113 0.63774,12.1927 0.80983,13.04032 4.26373,21 2.15345,4.96274 8.70965,17.62623 9.7379,18.80905 0.56613,0.65123 1.02933,1.51315 1.02933,1.91538 0,0.40222 1.21131,1.8944 2.69181,3.31594 2.71884,2.61058 7.78708,9.67108 7.83314,10.91226 0.0359,0.96829 2.71578,4.04737 3.52259,4.04737 0.37516,0 2.70124,2.16462 5.16906,4.81027 2.46783,2.64564 6.40991,6.37669 8.76018,8.2912 2.35027,1.91452 4.27322,3.8658 4.27322,4.33619 0,1.38679 3.91368,5.06234 5.39032,5.06234 1.05468,0 1.35968,-0.59057 1.35968,-2.63269 z m 41.27722,-105.22853 c 0.81003,-1.8312 1.47278,-3.93468 1.47278,-4.67439 0,-0.73972 1.21828,-3.81869 2.70728,-6.84217 1.48901,-3.02347 3.30932,-6.84722 4.04515,-8.49722 2.64845,-5.93883 4.51684,-9.79463 5.95787,-12.29529 1.45087,-2.51774 0.8036,-6.05574 -1.2714,-6.94945 -0.32596,-0.1404 -2.10493,-2.09161 -3.95328,-4.33604 -4.18284,-5.0792 -7.60012,-8.17204 -11.4648,-10.37634 -1.64615,-0.93891 -4.03988,-2.73548 -5.31941,-3.99238 -1.27952,-1.2569 -3.92226,-3.18561 -5.87274,-4.28601 -2.0567,-1.16034 -3.90637,-2.86997 -4.40349,-4.07011 -0.55483,-1.33948 -1.42027,-2.07101 -2.45367,-2.074 -0.87808,-0.003 -2.50889,-0.48061 -3.62403,-1.06238 -21.95984,-11.45642 -22.16528,-11.49047 -24.15931,-4.00498 -1.52208,5.71383 -3.89398,16.97252 -4.54463,21.57198 -0.26258,1.85625 -0.98364,5.49668 -1.60235,8.08984 -1.4817,6.21021 2.51869,12.16016 8.17577,12.16016 1.34293,0 7.55621,4.48777 13.18439,9.5229 2.2145,1.98116 5.252,4.44585 6.75,5.4771 1.49801,1.03125 3.5674,2.61567 4.59865,3.52093 1.03125,0.90526 3.19689,2.7615 4.81253,4.12497 1.61565,1.36348 3.50998,3.42035 4.20962,4.57082 6.21604,10.22145 9.66136,11.41591 12.75507,4.42206 z m 60.64597,1.54872 c 1.92355,-1.95938 4.70361,-5.15796 6.17791,-7.10795 2.51978,-3.33282 12.58535,-11.76925 17.48322,-14.65352 1.21513,-0.71557 3.37987,-2.56666 4.81053,-4.11353 1.43067,-1.54688 2.9846,-2.8125 3.45318,-2.8125 0.46858,0 1.26335,-0.42188 1.76615,-0.9375 0.5028,-0.51563 3.86092,-2.45625 7.4625,-4.3125 7.79192,-4.01595 8.07256,-5.02323 5.45236,-19.56929 -2.29264,-12.72757 -2.81598,-15.03459 -4.10461,-18.09412 -0.64594,-1.53363 -1.1796,-3.89613 -1.18591,-5.25 -0.0193,-4.13914 -0.83927,-4.78002 -4.61867,-3.60999 -6.49521,2.0108 -24.31069,11.23677 -25.93141,13.42892 -0.86708,1.17279 -2.98776,2.83058 -4.71262,3.68397 -4.97309,2.46049 -18.77637,13.49745 -22.47582,17.97144 -1.85625,2.24488 -3.96563,4.77617 -4.6875,5.62509 -1.90644,2.24196 -1.61718,5.03988 0.9375,9.06819 1.2375,1.95133 2.25,4.33439 2.25,5.29569 0,0.96129 0.6623,2.58979 1.47178,3.61887 2.22118,2.82378 7.99641,15.57464 8.49161,18.74822 1.06463,6.82301 3.36854,7.69728 7.9598,3.02051 z m 78.86043,-50.38396 c 10.5545,-3.68609 9.6914,-1.50467 9.7049,-24.52861 0.0132,-22.54938 0.59116,-21.2943 -8.89632,-19.31939 -4.42931,0.922 -6.72866,1.53617 -15.58838,4.16377 -3.20601,0.95083 -3.38496,1.83249 -1.67246,8.2399 0.81082,3.03368 1.94548,9.05954 2.52148,13.39079 3.2699,24.58817 1.56105,22.37359 13.93078,18.05354 z m -214.80697,-0.0535 c 0.49443,-1.03125 1.27555,-4.83806 1.73583,-8.45957 0.46027,-3.62151 2.02535,-11.31351 3.47795,-17.09332 2.84554,-11.32226 2.80422,-13.21379 -0.30292,-13.86619 -1.10688,-0.23241 -3.12084,-0.90819 -4.47546,-1.50174 -1.35462,-0.59355 -3.30608,-1.07918 -4.33658,-1.07918 -1.03051,0 -2.97008,-0.45812 -4.31017,-1.01805 -3.91624,-1.63631 -11.09642,-2.30926 -11.85582,-1.11116 -2.26971,3.58088 -0.57085,41.87506 1.85826,41.88733 1.89615,0.01 7.28066,1.62069 10.98226,3.28604 3.58999,1.61513 6.12744,1.2485 7.22665,-1.04416 z m 105.03581,-11.73565 c 1.3131,-0.97039 2.67963,-1.76435 3.03673,-1.76435 0.3571,0 1.47649,-1.33526 2.48754,-2.96725 1.01105,-1.63198 2.77929,-3.36577 3.92943,-3.85286 1.15014,-0.48709 2.42065,-1.50127 2.82336,-2.25374 1.0118,-1.89057 12.62027,-10.03313 19.03951,-13.35495 2.91523,-1.50856 7.15566,-4.12547 9.42319,-5.81537 2.26753,-1.68989 5.30403,-3.45188 6.74778,-3.91553 1.44375,-0.46365 4.28532,-1.68614 6.31461,-2.71665 2.02928,-1.03051 4.14953,-1.87365 4.71167,-1.87365 3.48491,0 1.2235,-9.2382 -4.31441,-17.625 -1.08952,-1.65 -3.17701,-4.85625 -4.63888,-7.125 -8.63492,-13.40103 -11.86031,-18.01108 -15.50799,-22.16555 -1.27325,-1.45016 -2.315,-3.43551 -2.315,-4.4119 0,-1.12977 -0.7796,-2.27926 -2.1441,-3.1614 -1.17926,-0.76238 -4.36421,-3.9174 -7.07767,-7.01115 -2.71345,-3.09375 -5.96063,-6.29823 -7.21593,-7.12105 -1.25531,-0.82283 -2.63682,-2.35174 -3.07002,-3.39758 -0.78476,-1.89459 -12.39866,-11.93414 -14.83573,-12.82465 -2.22565,-0.81325 -5.98929,2.35103 -17.54606,14.75186 -1.52048,1.63153 -5.81539,6.00392 -9.54425,9.71642 -3.72886,3.7125 -6.78795,7.32936 -6.79799,8.03746 -0.01,0.70811 -1.52227,3.07061 -3.36052,5.25 -9.69812,11.49794 -10.49759,12.55214 -12.38988,16.33754 -0.92792,1.85625 -2.26345,4.05 -2.96785,4.875 -0.7044,0.825 -2.76132,4.03125 -4.57093,7.125 -1.80961,3.09375 -4.07541,6.68438 -5.0351,7.97918 -4.37446,5.90192 -3.2783,9.59004 3.64368,12.25944 7.78942,3.00391 12.831,5.5322 14.11379,7.07787 0.54023,0.65093 1.39651,1.18351 1.90286,1.18351 0.50636,0 2.25469,0.92812 3.88519,2.0625 3.48221,2.42264 4.57246,3.10635 9.82301,6.16019 2.16562,1.25957 3.9375,2.59173 3.9375,2.96035 0,0.36862 0.92812,0.99939 2.0625,1.40171 1.13437,0.40232 3.58125,2.05038 5.4375,3.66235 1.85625,1.61197 4.32126,3.52923 5.47781,4.26058 1.15654,0.73134 2.31457,1.88156 2.57339,2.55604 0.8361,2.17886 7.7192,8.50964 8.66985,7.97416 0.49717,-0.28005 1.97831,-1.30314 3.29141,-2.27353 z M 335.05113,682.66072 c 0,-0.43684 0.3375,-0.58567 0.75,-0.33073 0.4125,0.25494 0.75,0.61235 0.75,0.79426 0,0.18191 -0.3375,0.33074 -0.75,0.33074 -0.4125,0 -0.75,-0.35742 -0.75,-0.79427 z" class="svg-elem-1"></path></svg>
