<?xml version="1.0" standalone="no"?>
<!DOCTYPE svg PUBLIC "-//W3C//DTD SVG 20010904//EN"
 "http://www.w3.org/TR/2001/REC-SVG-20010904/DTD/svg10.dtd">
<svg version="1.0" xmlns="http://www.w3.org/2000/svg"
 width="900.000000pt" height="756.000000pt" viewBox="0 0 900.000000 756.000000"
 preserveAspectRatio="xMidYMid meet">
<metadata>
Created by potrace 1.10, written by Peter Selinger 2001-2011
</metadata>
<g transform="translate(0.000000,756.000000) scale(0.100000,-0.100000)"
fill="#000000" stroke="none">
<path d="M4278 7406 c-20 -6 -43 -17 -50 -24 -6 -6 -16 -12 -21 -12 -19 0
-106 -78 -321 -290 -271 -266 -319 -317 -438 -455 -159 -187 -203 -243 -239
-310 -12 -22 -39 -63 -60 -92 -22 -29 -39 -55 -39 -59 0 -4 -14 -30 -32 -58
-17 -28 -59 -105 -93 -171 -35 -66 -72 -136 -83 -155 -11 -19 -46 -86 -77
-147 -31 -62 -59 -113 -62 -113 -16 0 -91 25 -108 37 -11 7 -33 13 -49 13 -16
0 -57 7 -90 16 -34 8 -83 21 -111 28 -76 20 -163 37 -240 46 -73 9 -146 22
-252 46 -34 8 -86 14 -116 14 -106 0 -116 -44 -118 -476 -1 -164 -4 -382 -8
-484 l-6 -185 -130 3 c-71 2 -182 7 -245 13 -168 14 -351 14 -555 -1 -170 -12
-182 -14 -207 -38 l-28 -26 0 -350 c0 -278 3 -362 15 -406 8 -30 15 -86 15
-125 0 -38 10 -113 21 -165 11 -52 26 -144 33 -205 18 -149 37 -235 113 -505
8 -30 21 -70 29 -88 8 -18 14 -39 14 -47 0 -8 6 -29 14 -47 23 -55 43 -109 65
-181 19 -61 29 -85 53 -127 4 -8 12 -24 17 -35 5 -11 21 -37 35 -58 14 -21 26
-42 26 -47 0 -5 13 -35 30 -67 16 -31 30 -63 30 -70 0 -15 52 -103 91 -153 14
-19 61 -87 104 -150 43 -63 91 -133 108 -155 47 -60 230 -245 283 -285 26 -19
70 -58 98 -86 41 -42 206 -164 221 -164 2 0 24 -13 48 -30 25 -16 50 -30 56
-30 7 0 43 -20 81 -45 38 -25 71 -45 73 -45 9 0 93 -42 122 -60 62 -40 176
-90 205 -90 16 0 31 -4 34 -9 12 -19 298 -93 466 -122 77 -12 140 -26 195 -41
25 -7 191 -11 450 -12 403 -1 411 -1 451 21 59 32 67 44 61 105 -5 61 -24 160
-39 203 -6 17 -12 46 -14 65 -9 77 -37 269 -50 344 -8 43 -14 104 -14 136 0
32 -8 92 -17 132 -25 109 -24 800 1 973 35 247 47 321 58 365 6 25 12 56 15
70 2 14 10 48 18 75 7 28 21 84 30 125 10 41 24 84 31 95 8 11 14 29 14 41 0
12 8 37 17 56 28 56 32 65 53 125 11 31 20 67 20 79 0 30 34 58 62 50 29 -7
58 -58 58 -101 0 -19 6 -49 14 -67 53 -125 106 -284 106 -319 0 -14 6 -45 14
-70 39 -124 57 -221 91 -494 14 -109 16 -202 13 -580 -5 -441 -14 -596 -44
-740 -8 -38 -14 -92 -14 -120 0 -27 -12 -84 -26 -125 -14 -41 -29 -106 -34
-145 -5 -38 -14 -86 -20 -105 -19 -65 -13 -86 33 -123 129 -102 552 -129 902
-56 28 6 97 17 155 26 58 8 128 19 155 23 62 10 196 39 206 46 5 2 42 13 84
24 42 11 86 26 98 35 12 8 29 15 39 15 29 0 140 51 212 97 28 18 77 47 111 64
33 17 87 46 120 65 33 19 69 39 80 45 46 23 132 80 210 138 68 51 310 290 401
396 80 93 147 182 171 226 10 20 38 56 61 80 23 24 56 73 73 109 83 170 103
207 125 237 13 17 24 36 24 41 0 5 12 36 26 68 14 33 37 91 50 129 33 99 53
153 63 173 14 28 32 85 41 127 5 22 18 67 30 100 33 96 50 156 60 220 5 33 14
76 20 95 5 19 10 48 10 64 0 15 6 58 14 95 20 92 38 203 46 291 4 41 13 120
19 175 31 288 39 613 18 725 -12 62 -14 66 -52 84 -52 24 -175 35 -490 43
-219 5 -489 -6 -571 -22 -11 -3 -29 2 -40 9 -18 14 -19 37 -24 533 -5 568 -4
557 -66 587 -43 20 -65 20 -128 1 -27 -8 -82 -15 -123 -15 -76 0 -188 -20
-256 -46 -20 -8 -53 -14 -71 -14 -19 0 -76 -11 -127 -25 -52 -13 -105 -27
-119 -31 -14 -3 -40 -13 -58 -21 -18 -8 -53 -13 -78 -11 -50 3 -51 4 -101 113
-10 22 -37 66 -60 98 -24 33 -43 64 -43 69 0 6 -13 30 -30 55 -16 24 -30 51
-30 59 0 21 -26 67 -76 134 -63 85 -134 190 -134 200 0 4 -20 29 -45 54 -25
26 -54 63 -64 84 -11 20 -41 63 -68 94 -26 32 -84 101 -128 155 -44 54 -121
139 -172 189 -51 51 -93 96 -93 102 0 6 -14 21 -30 34 -17 13 -44 34 -61 47
-16 13 -38 40 -49 61 -10 20 -43 55 -73 78 -31 23 -68 53 -84 67 -15 14 -39
36 -53 49 -57 51 -139 106 -179 121 -49 17 -52 17 -103 1z m160 -615 c45 -36
101 -88 125 -114 23 -27 118 -125 210 -219 117 -119 173 -183 184 -212 9 -22
36 -63 59 -91 59 -70 366 -532 400 -602 30 -61 53 -134 54 -169 0 -24 -14 -32
-234 -128 -21 -9 -77 -42 -125 -74 -47 -31 -95 -62 -106 -68 -11 -6 -41 -22
-66 -36 -90 -48 -252 -161 -314 -216 -34 -32 -81 -72 -103 -90 -23 -18 -48
-45 -57 -60 -17 -28 -124 -102 -148 -102 -16 0 -122 99 -130 122 -9 25 -238
208 -261 208 -5 0 -24 13 -41 29 -16 16 -46 37 -65 48 -19 10 -62 36 -95 58
-75 50 -96 62 -115 71 -8 4 -44 26 -80 49 -60 39 -191 105 -207 105 -17 0
-101 46 -125 68 -45 42 -38 72 45 193 24 35 46 71 50 79 4 8 16 29 27 45 11
17 23 37 27 45 3 8 18 31 32 50 29 39 41 58 71 114 22 39 126 181 167 226 70
77 87 100 108 145 18 38 91 119 287 317 145 147 274 271 288 276 34 13 43 8
138 -67z m-2181 -1595 c21 -8 72 -22 113 -31 41 -9 91 -23 110 -30 19 -8 48
-16 63 -20 28 -6 29 -6 25 -73 -2 -37 -10 -89 -17 -117 -7 -27 -19 -75 -26
-105 -7 -30 -20 -85 -29 -122 -9 -36 -16 -84 -16 -105 0 -37 -33 -179 -44
-190 -9 -9 -97 -4 -110 6 -15 13 -126 51 -148 51 -10 0 -26 8 -36 18 -26 26
-47 250 -47 505 0 174 2 209 15 217 23 14 105 12 147 -4z m4284 -3 c11 -12 15
-78 17 -302 2 -157 1 -305 -3 -328 -9 -61 -43 -96 -117 -121 -35 -12 -88 -30
-118 -42 -73 -27 -84 -26 -102 13 -16 32 -49 217 -48 271 0 29 -23 165 -42
246 -35 152 -32 183 19 193 15 3 60 15 98 26 39 12 90 25 115 30 25 5 56 14
70 20 40 16 96 13 111 -6z m-851 -294 c0 -21 6 -56 14 -76 21 -58 43 -140 59
-223 38 -189 47 -250 47 -322 0 -75 -1 -77 -34 -105 -19 -15 -57 -39 -83 -53
-26 -13 -66 -35 -88 -49 -22 -14 -57 -34 -77 -44 -21 -11 -48 -31 -61 -46 -12
-15 -85 -75 -162 -133 -151 -114 -213 -172 -315 -293 -56 -66 -102 -105 -125
-105 -10 0 -45 83 -45 107 0 12 -7 39 -16 60 -9 21 -23 52 -29 68 -27 64 -52
112 -92 183 -24 41 -43 84 -43 97 0 13 -13 46 -28 72 -63 107 -60 138 17 223
22 25 41 48 41 51 1 21 302 261 392 313 25 15 66 44 90 65 23 21 62 50 85 64
43 27 216 116 283 145 19 8 44 20 55 25 25 14 86 25 103 19 7 -2 12 -21 12
-43z m-2613 24 c21 -9 105 -49 187 -90 81 -40 157 -73 168 -73 11 0 41 -22 67
-49 26 -27 71 -64 101 -84 30 -19 71 -49 90 -67 19 -17 66 -52 105 -77 38 -25
90 -67 115 -93 100 -103 190 -209 190 -226 0 -10 -26 -72 -59 -138 -32 -67
-80 -166 -106 -221 -25 -55 -52 -111 -60 -125 -7 -14 -16 -43 -20 -65 -4 -22
-18 -64 -32 -92 -43 -93 -90 -82 -169 37 -40 62 -90 113 -229 235 -22 19 -43
35 -46 35 -3 0 -15 8 -26 18 -12 9 -51 42 -89 72 -37 30 -84 69 -103 86 -63
54 -127 92 -184 108 -115 33 -140 121 -91 317 8 31 14 70 14 85 0 56 82 386
102 412 14 16 30 15 75 -5z m4641 -786 c15 -11 16 -241 2 -357 -5 -41 -12
-106 -15 -145 -3 -38 -12 -101 -20 -140 -7 -38 -21 -110 -30 -160 -9 -49 -22
-108 -30 -130 -7 -22 -21 -78 -30 -125 -16 -81 -24 -112 -60 -224 -8 -27 -15
-62 -15 -77 0 -15 -17 -65 -39 -111 -55 -118 -81 -179 -81 -190 0 -18 -93
-203 -120 -238 -15 -19 -30 -42 -33 -50 -4 -8 -16 -28 -26 -45 -11 -16 -30
-50 -42 -75 -33 -66 -137 -201 -242 -315 -157 -170 -195 -205 -277 -261 -25
-17 -76 -52 -115 -79 -38 -26 -88 -61 -110 -76 -39 -26 -207 -117 -295 -159
-25 -12 -53 -26 -63 -31 -18 -10 -166 -59 -278 -92 -60 -18 -109 -22 -109 -9
0 5 33 33 73 62 39 30 115 95 167 146 52 50 137 131 189 180 51 49 107 107
123 129 16 22 46 58 67 80 20 22 68 76 106 120 38 44 77 89 87 100 19 19 33
40 144 210 74 113 78 120 104 177 12 26 28 53 36 59 8 6 14 19 14 29 0 10 14
48 30 85 17 37 30 72 30 77 0 6 14 40 30 75 17 34 30 71 30 80 0 9 6 39 14 67
8 28 20 71 26 96 8 31 15 228 20 620 4 316 11 590 15 607 4 18 12 36 19 41 30
23 236 50 501 66 74 4 188 -5 203 -17z m-6308 -7 c80 -5 170 -16 200 -23 l55
-13 6 -150 c4 -82 7 -286 8 -454 1 -373 16 -660 37 -760 9 -41 30 -103 45
-138 16 -34 29 -68 29 -76 0 -8 8 -29 17 -48 9 -18 22 -45 30 -60 7 -14 13
-31 13 -37 0 -16 60 -140 84 -176 11 -16 42 -59 67 -95 26 -36 54 -81 62 -100
22 -53 144 -198 279 -332 43 -42 78 -83 78 -91 0 -20 93 -112 230 -227 131
-111 310 -282 310 -297 0 -22 -70 -15 -129 14 -31 14 -69 30 -86 34 -29 8 -56
17 -165 59 -30 12 -68 25 -85 29 -39 10 -103 46 -240 135 -137 88 -141 90
-190 116 -23 12 -70 46 -105 76 -35 30 -67 54 -72 54 -4 0 -23 21 -43 48 -20
26 -66 77 -102 115 -91 94 -209 243 -235 297 -12 25 -45 79 -73 120 -75 110
-126 200 -171 308 -8 17 -21 48 -29 67 -9 19 -22 51 -30 70 -8 19 -21 50 -29
68 -20 44 -41 110 -61 187 -9 36 -23 88 -30 115 -7 28 -21 86 -30 130 -9 44
-23 91 -29 105 -37 75 -79 407 -102 805 -8 146 -4 148 196 140 80 -3 210 -10
290 -15z m875 -185 c40 -19 87 -48 104 -65 l31 -32 0 -116 c1 -64 5 -148 10
-187 6 -38 12 -99 15 -135 7 -75 28 -211 51 -320 15 -73 26 -117 58 -231 9
-31 16 -64 16 -75 0 -23 22 -92 62 -191 15 -39 28 -83 28 -97 0 -14 6 -40 14
-58 8 -18 29 -69 47 -113 18 -44 36 -85 41 -91 5 -6 15 -34 23 -61 8 -28 24
-62 35 -76 11 -14 20 -33 20 -44 0 -10 7 -27 15 -37 8 -11 15 -28 15 -38 0
-18 18 -56 59 -124 10 -17 30 -51 43 -75 13 -24 35 -62 49 -84 34 -53 52 -106
40 -118 -16 -16 -39 -1 -75 50 -19 27 -63 73 -97 103 -34 30 -97 89 -138 131
-42 41 -93 88 -113 103 -20 15 -45 44 -55 64 -26 51 -94 149 -138 197 -59 63
-97 127 -185 305 -81 165 -104 217 -123 290 -9 30 -18 120 -21 200 -3 80 -11
233 -17 340 -15 270 2 576 34 618 15 19 64 8 152 -33z m4256 -35 c24 -90 27
-673 4 -824 -8 -55 -15 -117 -15 -138 0 -60 -51 -266 -73 -295 -5 -7 -19 -40
-31 -75 -27 -77 -53 -128 -66 -128 -5 0 -12 -10 -16 -22 -9 -29 -138 -223
-175 -263 -15 -16 -41 -57 -58 -90 -18 -33 -48 -78 -68 -100 -144 -160 -226
-245 -237 -245 -7 0 -53 -41 -103 -91 -54 -54 -96 -88 -102 -84 -16 10 -5 40
44 115 23 36 63 108 89 160 26 52 54 102 61 110 19 22 45 77 45 94 0 9 15 48
34 88 62 133 86 190 86 207 0 19 38 131 50 146 4 6 10 21 13 35 3 14 11 41 17
60 54 152 70 205 70 238 0 17 5 43 11 59 19 47 48 205 49 263 0 30 7 66 15 80
8 14 14 43 15 65 0 22 6 96 14 165 8 69 20 175 26 235 21 212 20 208 54 240
44 41 110 64 176 62 l54 -2 17 -65z m-3582 -305 c31 -24 85 -73 121 -110 36
-37 81 -77 100 -90 66 -43 221 -198 245 -244 13 -25 36 -59 51 -76 52 -59 140
-181 153 -211 9 -24 10 -45 2 -90 -6 -32 -11 -103 -11 -159 0 -69 -5 -118 -17
-151 -14 -42 -17 -111 -20 -461 -4 -351 -7 -413 -19 -413 -8 0 -20 12 -26 28
-7 15 -25 43 -40 63 -15 20 -28 40 -28 43 0 3 -24 41 -54 84 -29 43 -57 89
-61 103 -8 25 -58 119 -81 154 -8 11 -14 27 -14 37 0 10 -17 46 -39 81 -47 77
-81 153 -81 180 0 36 -63 260 -79 282 -8 11 -32 88 -56 185 -10 36 -30 108
-46 160 -16 53 -29 104 -29 115 0 11 -6 52 -14 90 -8 39 -22 106 -30 150 -50
261 -53 285 -39 299 14 13 56 -5 112 -49z m2863 33 c14 -38 -46 -435 -88 -584
-8 -28 -14 -59 -14 -69 0 -30 -53 -209 -90 -305 -12 -30 -25 -68 -30 -85 -18
-67 -83 -221 -154 -370 -30 -60 -77 -159 -106 -220 -29 -60 -67 -130 -85 -155
-18 -25 -43 -67 -56 -94 -13 -28 -34 -61 -46 -74 -12 -13 -25 -38 -29 -55 -9
-42 -33 -77 -51 -77 -13 0 -15 15 -9 103 22 357 14 708 -20 912 -9 50 -18 136
-21 192 l-6 101 57 84 c129 187 147 214 160 231 34 45 176 184 233 226 34 26
104 85 154 132 51 46 104 92 118 101 31 20 77 23 83 6z"/>
</g>
</svg>
